<svg xmlns="http://www.w3.org/2000/svg" viewBox="0 0 644.54 47.75"><defs><style>.cls-1{fill:#231f20;}</style></defs><g id="Layer_2" data-name="Layer 2"><g id="Layer_1-2" data-name="Layer 1"><rect class="cls-1" x="313.79" y="0.75" width="38.68" height="2.73"/><path class="cls-1" d="M352.48,10.24H337.2V46.9h2.7V13h12.58Zm-23.37,0H313.8V13h12.59V46.9h2.72ZM374.78,29.7h20.46V27.2h-23v10h23.53v-2.5h-21Zm-2.5-19.35V20h23V17.5H374.78V12.86h21V10.35ZM395.81.74H361.36V46.88h34.45v-2.5H363.86V3.25h31.95Z"/><path class="cls-1" d="M25.39,0C10.94,0,0,9.63,0,23.88S10.94,47.75,25.39,47.75c12.1,0,18.26-7.34,21-13.5l-5-2.3a18.45,18.45,0,1,1-.08-16.14l5.09-2.37C43.58,7.07,37.49,0,25.39,0m0,35.41c-6.72,0-11.21-5.12-11.21-11.55s4.49-11.56,11.21-11.56A9.78,9.78,0,0,1,34.31,19l5.45-2.53a16.83,16.83,0,1,0,.07,14.75l-5.52-2.55a9.77,9.77,0,0,1-8.92,6.72"/><path class="cls-1" d="M142.43,22.64,126.38.76H112V46.92h14V23.53l17,23.39h13.43V.76h-14Zm5.14-17.25h3.85v36.7h-5.2L121.43,9.17h-.3V42.09h-3.84V5.33h6.06l24.22,32.16ZM77.61,0C63.36,0,52.36,9.7,52.36,23.88s11,23.86,25.25,23.86,25.25-9.68,25.25-23.86S91.86,0,77.61,0m0,42.9C66.81,42.92,58,34.37,58,23.84S66.81,4.76,77.62,4.76s19.62,8.56,19.62,19.08-8.8,19.08-19.62,19.08m0-35.14C68.47,7.78,61,15,61,23.84S68.47,39.9,77.62,39.9s16.6-7.21,16.6-16.06S86.77,7.78,77.62,7.78m0,27.65c-6.71,0-11.06-5.12-11.06-11.55S70.9,12.32,77.61,12.32s11.06,5.12,11.06,11.56S84.32,35.43,77.61,35.43m113.3,0c-6.71,0-11.21-5.12-11.21-11.55s4.5-11.56,11.21-11.56A9.8,9.8,0,0,1,199.84,19l4.67-2.18a15.69,15.69,0,1,0,.07,14l-4.74-2.19a9.79,9.79,0,0,1-8.93,6.72m0-35.41c-14.46,0-25.38,9.61-25.38,23.86s10.92,23.87,25.38,23.87c12.1,0,18.26-7.34,21-13.5l-3.72-1.7a19.61,19.61,0,1,1-.09-17.34l3.81-1.77C209.11,7.07,203,0,190.91,0"/><path class="cls-1" d="M253.3,30.59c3.67-1.8,8.3-6,8.3-14C261.6,8,255.79.76,245,.76H220.37V46.92H225v-43h17.32c8.83,0,14.52,4.79,14.52,12.21,0,6.17-3.66,10.78-9.25,12.12l8.72,18.67h5.39Zm-23.44-1.93V46.92h4.49V32.39h5.05l6.36,14.53h5.18l-8.48-18.26Zm22.06-12.54c0-6.59-6.74-7.31-9.63-7.31H229.86v15H244.1c4.82,0,7.82-2.94,7.82-7.66m-17.58,4.1V13h8.51c2.36,0,4.57,1.11,4.57,3.59s-2.21,3.68-4.57,3.68Z"/><path class="cls-1" d="M281.54,38.08h24.9V34.73H285.39v-5h20.55v-3.2h-24.4Zm0-17.28h24.4V17.51H285.39V13h21.05v-3h-24.9Zm-3.24,23h-2.87V4.22h31V.76h-35V46.92h35V43.79H278.3Z"/><path class="cls-1" d="M435.5.74h-6.06V46.9h31.5V42.12H435.5Zm25.44,38.95v-5H443.42V.74h-5.48V39.69Z"/><path class="cls-1" d="M492.19,0c-14.45,0-25.38,9.61-25.38,23.86s10.93,23.87,25.38,23.87c12.11,0,18.26-7.34,21-13.5l-4.45-2a18.88,18.88,0,1,1-.11-16.65l4.56-2.13C510.39,7.05,504.3,0,492.19,0m0,35.41c-6.71,0-11.2-5.12-11.2-11.55s4.49-11.55,11.2-11.55A9.78,9.78,0,0,1,501.12,19l5.24-2.45a16.42,16.42,0,1,0,.1,14.59l-5.34-2.46a9.8,9.8,0,0,1-8.93,6.71M543.51,8.07,543.19,8H529.86V39.58h13.65a15.77,15.77,0,0,0,0-31.51m-.74,26.64h-7.13V12.9h7.1a10.91,10.91,0,0,1,0,21.81m0-34L541.51.8H521.69V47h21.88a23.11,23.11,0,0,0-.83-46.2M543.63,42H527.41V5.56h15.33l.63,0,.26,0a18.22,18.22,0,0,1,0,36.41"/><path class="cls-1" d="M582.36,36.64,578.72,47h6.78l1.66-5.4h16.61l1.65,5.4h7.37L609,36.64Zm16.2-28.41h-6.17l-9.17,26H608.1Zm-3.09,6.27L600,29.37H590.9Zm4.79-8.7L615.41,47h5.85L604.25.8H586.68L569.66,47h6.46L590.66,5.8Z"/><path class="cls-1" d="M635.24,7.18c1.15,0,1.84.52,1.84,1.56,0,.89-.62,1.53-1.78,1.53H633V7.18Zm1.93,4.67a3.25,3.25,0,0,0,2.25-3.25c0-2.17-1.6-3.45-4.09-3.45h-4.66V15.6H633V12.24h1.8L637,15.6h2.68Zm-2.41-9.92a8.57,8.57,0,0,1,8.65,8.7,8.65,8.65,0,0,1-8.71,8.76,8.56,8.56,0,0,1-8.64-8.71,8.63,8.63,0,0,1,8.7-8.75m-.06,18.54a9.82,9.82,0,1,0-9.78-9.79,9.84,9.84,0,0,0,9.78,9.79"/></g></g></svg>