<svg xmlns="http://www.w3.org/2000/svg" viewBox="0 0 489.24 126"><g id="Layer_2" data-name="Layer 2"><g id="Layer_1-2" data-name="Layer 1"><path d="M63,0a63,63,0,1,0,63,63A63.07,63.07,0,0,0,63,0Zm55.33,63A54.93,54.93,0,0,1,116,78.89H66.83V47.11H116A54.93,54.93,0,0,1,118.33,63ZM63,7.67a55.38,55.38,0,0,1,50.05,31.77H13A55.38,55.38,0,0,1,63,7.67ZM7.67,63A54.93,54.93,0,0,1,10,47.11H59.17v71.07A55.39,55.39,0,0,1,7.67,63Zm59.16,55.18V86.56h46.22A55.43,55.43,0,0,1,66.83,118.18Z"/><path d="M174.05,58.6h20.64V69.51H174.05v17H161.21V39.44h35.22V50.29H174.05Z"/><path d="M216.88,86.56V39.44h12.84V86.56Z"/><path d="M298,86.56h-7.26L265.3,62.38V86.56H252.47V39.44h7.32L285.14,64.3V39.44H298Z"/><path d="M320.66,86.56V39.44H333.5V86.56Z"/><path d="M472.74,86.56H460.21V62.88L449.06,75.21h-4L433.8,62.88V86.56H421.28V39.44h8L447,59.34l17.79-19.9h7.94Z"/><path d="M399,65.36q0,10.17-5.86,16.18t-15.47,6q-9.92,0-15.9-6t-6-16.21V39.44h12.83V64.8c0,3.39.81,6,2.45,7.94a8.25,8.25,0,0,0,6.6,2.85,7.48,7.48,0,0,0,6.14-2.85c1.53-1.91,2.29-4.55,2.29-7.94V39.44H399Z"/><path d="M488,40.69A4.44,4.44,0,0,1,481.72,47a4.55,4.55,0,0,1,0-6.31,4.52,4.52,0,0,1,6.24,0Zm-.36,6a3.75,3.75,0,0,0,1.13-2.78A3.86,3.86,0,0,0,487.6,41a3.95,3.95,0,0,0-5.51,0A3.83,3.83,0,0,0,481,43.86a3.73,3.73,0,0,0,1.14,2.78,4,4,0,0,0,5.51,0Zm-1.24-2.77a1.67,1.67,0,0,1-1,.43L487,45.84h-.63l-1.54-1.52h-1v1.52h-.48V41.62h1.8a1.82,1.82,0,0,1,1.17.36,1.19,1.19,0,0,1,.45,1A1.21,1.21,0,0,1,486.36,43.87Zm-1.28,0a1.28,1.28,0,0,0,.83-.25.82.82,0,0,0,.32-.67.81.81,0,0,0-.31-.66,1.3,1.3,0,0,0-.81-.24h-1.32v1.82Z"/></g></g></svg>