<svg xmlns="http://www.w3.org/2000/svg" viewBox="0 0 1550.36 332.92"><defs><style>.cls-1{fill:#231f20;}</style></defs><g id="Layer_2" data-name="Layer 2"><g id="Calque_1" data-name="Calque 1"><polygon class="cls-1" points="1411.41 0 1550.36 0 1550.36 28.85 1446.59 28.6 1446.59 85.55 1530.04 85.55 1530.04 112.88 1446.59 112.88 1446.59 155.9 1550.36 155.9 1550.36 184.5 1411.41 184.5 1411.41 0"/><path class="cls-1" d="M452,0h82.93c45.81,0,69.35,18.73,69.35,55.42,0,28.83-13.57,47-40.26,54.08l48.36,75h-40.5L525.7,112.88H487.18V184.5H452Zm84,85.54c21.76,0,33.15-10.12,33.15-30.12C569.1,37,557,27.33,533.41,27.33H487.18V85.54Z"/><polygon class="cls-1" points="996.87 155.9 889.61 155.9 889.61 0 854.43 0 854.43 184.5 996.87 184.5 996.87 155.9"/><path class="cls-1" d="M1053.36,0V107.31c0,30.88,15.44,46.82,45.05,46.82s45-15.94,45-46.82V0h35.18V113.64c0,48.34-27.34,73.14-80.23,73.14s-80.23-24.8-80.23-73.14V0Z"/><path class="cls-1" d="M281.06,0V107.31c0,30.88,15.44,46.82,45.05,46.82s45-15.94,45-46.82V0h35.18V113.64c0,48.34-27.33,73.14-80.22,73.14s-80.23-24.8-80.23-73.14V0Z"/><polygon class="cls-1" points="0 0 53.15 0 101.01 122.39 145.27 0 200.45 0 200.45 184.5 166.53 184.5 166.53 30.7 117.18 163.75 86.05 163.75 33.66 32.37 33.66 184.5 0 184.5 0 0"/><polygon class="cls-1" points="1209.98 183.24 1274.83 89.07 1215.95 0 1253.66 0 1294.12 61.07 1336.16 0 1377.67 0 1314.46 91.78 1375.06 183.24 1375.18 183.42 1375.9 184.5 1337.94 184.5 1337.21 183.41 1295.17 119.82 1251.28 183.54 1250.62 184.5 1209.11 184.5 1209.98 183.24"/><path class="cls-1" d="M840.81,203.2c-42-58.88-66.69-122.53-66.93-123.17L738.75,0H705.88L628.94,184.5h33.35l13-31.08H774.1c37.95,71.77,111.27,179.51,209.41,179.5q6.6,0,13.36-.67v-31C944.46,307.88,892,275,840.81,203.2ZM686.5,126.51l36.13-86.57,22.66,51.47c1.22,3.15,6.44,16.36,15.32,35.1Z"/></g></g></svg>