<svg
  xmlns="http://www.w3.org/2000/svg"
  xmlns:xlink="http://www.w3.org/1999/xlink"
  width="50"
  height="25"
  viewBox="-8 2 50 25"
>
  <defs>
    <filter id="Path_16" x="0" y="0" width="45.75" height="50" filterUnits="userSpaceOnUse">
      <feOffset dx="6" dy="9" input="SourceAlpha"/>
      <feGaussianBlur stdDeviation="5.5" result="blur"/>
      <feFlood flood-color="#fff" flood-opacity="0.341"/>
      <feComposite operator="in" in2="blur"/>
      <feComposite in="SourceGraphic"/>
    </filter>
  </defs>
  <g transform="matrix(1, 0, 0, 1, 0, 0)" filter="url(#Path_16)">
    <path id="Path_16-2" data-name="Path 16" d="M12.129-11.774,9.651-14.253a2.135,2.135,0,0,0-1.5-.622H2.125A2.125,2.125,0,0,0,0-12.75V0A2.125,2.125,0,0,0,2.125,2.125h8.5A2.131,2.131,0,0,0,12.75,0V-10.273A2.126,2.126,0,0,0,12.129-11.774ZM11.156,0a.531.531,0,0,1-.531.531h-8.5A.531.531,0,0,1,1.594,0V-12.746a.531.531,0,0,1,.531-.531H7.437v2.652A1.063,1.063,0,0,0,8.5-9.562h2.626V0ZM6.707-5.376q.044-.134.086-.27a8.368,8.368,0,0,0,.249-1.742A1.111,1.111,0,0,0,5.93-8.5,1.112,1.112,0,0,0,4.818-7.388a6.111,6.111,0,0,0,.46,2.069A16.657,16.657,0,0,1,4.434-3.4,6.023,6.023,0,0,0,2.681-2.2a1.135,1.135,0,0,0-.311.821A1.112,1.112,0,0,0,3.481-.266a1.111,1.111,0,0,0,.9-.464A16.505,16.505,0,0,0,5.4-2.356a10.985,10.985,0,0,1,1.789-.531A5.862,5.862,0,0,0,8.7-2.125a1.478,1.478,0,0,0,.479.078,1.2,1.2,0,0,0,1.2-1.224A1.226,1.226,0,0,0,9.158-4.5H9.035a13.567,13.567,0,0,0-1.506.178,4.068,4.068,0,0,1-.821-1.059ZM3.659-1.248a.227.227,0,0,1-.4-.176.217.217,0,0,1,.057-.151,4.652,4.652,0,0,1,1.058-.788c-.314.541-.579.926-.715,1.115ZM5.93-7.61a.223.223,0,0,1,.223.223,7.291,7.291,0,0,1-.191,1.4,4.835,4.835,0,0,1-.254-1.4A.222.222,0,0,1,5.93-7.61Zm-.541,4.3c.22-.448.439-.945.643-1.484a4.992,4.992,0,0,0,.829,1.062A13.137,13.137,0,0,0,5.389-3.31ZM9.045-3.6h.111a.34.34,0,0,1,.334.358.31.31,0,0,1-.309.309.6.6,0,0,1-.194-.031,5.112,5.112,0,0,1-1.08-.5C8.576-3.576,9.035-3.6,9.045-3.6Z" transform="translate(10.5 22.38)"/>
  </g>
</svg>
