<svg xmlns="http://www.w3.org/2000/svg" viewBox="0 0 441.75 121.09"><defs><style>.cls-1{fill:#191919;fill-rule:evenodd;}</style></defs><g id="Layer_2" data-name="Layer 2"><g id="Layer_1-2" data-name="Layer 1"><path class="cls-1" d="M0,30.25C17.52,20.2,35,10,52.49,0,62.62,6,72.85,11.77,83,17.69V49.33l9.15,0c0,.94.07,2.79.08,3.73l-9.23,0c-.09,7.86.26,15.72-.27,23.57,2.67,2.6,6.28,1.88,9.57,1.17,0,1-.08,3-.11,4-5,1.34-12.22,1.5-14.38-4.26-.62-8.15-.07-16.34-.25-24.51-2.64,0-5.27,0-7.88,0,0-.93.07-2.78.1-3.7,2.58,0,5.17,0,7.78-.06,0-9.5,0-19,0-28.51-8.41-4.86-16.9-9.59-25.19-14.65L5.57,33.1,5.45,87.39c.89.73,1.81,1.45,2.72,2.18,0,2,0,4,0,6L0,90.85Q0,60.54,0,30.25Z"/><path class="cls-1" d="M88.46,20.83c5.44,3.13,10.87,6.29,16.31,9.42q0,30.3,0,60.59c-17.52,10-34.93,20.29-52.5,30.25-12.82-7.49-25.64-15-38.56-22.25-.24-16.62,0-33.25-.1-49.86,1.81,0,3.65,0,5.48,0,0,1.26-.1,3.78-.14,5.05,5.43-7.22,18.27-8.13,22.71.58,5.43-8.45,20.91-8.84,24.72,1.21,2,8.64.54,17.68,1,26.5h-5.1c-.07-6.64.12-13.28,0-19.92-.06-3.68-1.36-7.8-4.89-9.53-3.81-1.72-8.88-.9-11.5,2.52-2.23,2.75-2.58,6.43-2.62,9.85,0,5.69,0,11.38,0,17.07-1.7,0-3.39,0-5.06,0-.11-6.6,0-13.19,0-19.79-.13-3.24-.36-7.1-3.3-9.13a9.82,9.82,0,0,0-12.9,2.41C18.66,59.55,19.05,64.8,19,69.4c.15,8.65.21,17.3.52,25.94l33.24,19.25,46.5-27.27L99.22,33.8,88.46,27.29Q88.43,24.07,88.46,20.83Z"/><path class="cls-1" d="M150.25,19.89H155c.09,1.29.16,2.46.22,3.52s.14,2.11.22,3.15a13.94,13.94,0,0,1,3.8-5.33,9.74,9.74,0,0,1,6.3-2,9.3,9.3,0,0,1,6.15,1.93,7.51,7.51,0,0,1,2.69,5,15,15,0,0,1,3.86-5,9.72,9.72,0,0,1,6.18-1.93,9.06,9.06,0,0,1,6.43,2.18,7.72,7.72,0,0,1,2.48,5.6V45.93h-5.4V29.42A5.52,5.52,0,0,0,186.54,26a5.37,5.37,0,0,0-4-1.53,7.46,7.46,0,0,0-5.89,2.4A9.32,9.32,0,0,0,174.4,33V45.93h-5.33V29.42a5.05,5.05,0,0,0-5.34-4.92,8.32,8.32,0,0,0-3.38.66,7.46,7.46,0,0,0-4.21,4.45,10.16,10.16,0,0,0-.56,3.43V45.93h-5.33Z"/><path class="cls-1" d="M235.67,46.49h-4.51l-.63-7.22a13.83,13.83,0,0,1-4.05,5.23,10.34,10.34,0,0,1-6.61,2.06,9.1,9.1,0,0,1-6.37-2.15A7.68,7.68,0,0,1,211,38.77V19.89h5.33V36.4a5.22,5.22,0,0,0,1.41,3.3,5.78,5.78,0,0,0,4,1.56,9,9,0,0,0,3.45-.65,8.36,8.36,0,0,0,2.69-1.78,7.81,7.81,0,0,0,1.76-2.68,9.05,9.05,0,0,0,.63-3.42V19.89h5.39Z"/><path class="cls-1" d="M269.11,26.06a12.33,12.33,0,0,0-3.39.47,9.24,9.24,0,0,0-2.91,1.4,6.82,6.82,0,0,0-2,2.33,6.73,6.73,0,0,0-.75,3.21V45.93h-5.34v-26h4.71c.08,1.29.15,2.46.22,3.52s.13,2.11.22,3.15a11.64,11.64,0,0,1,2.13-3,14.43,14.43,0,0,1,2.82-2.31,16.45,16.45,0,0,1,3-1.46,7.41,7.41,0,0,1,2.57-.53Z"/><polygon class="cls-1" points="155.46 68.15 157.61 68.15 157.61 78.94 165.09 78.94 165.09 80.84 157.61 80.84 157.61 102.31 155.46 102.31 155.46 80.84 150.25 80.84 150.25 78.94 155.46 78.94 155.46 68.15"/><path class="cls-1" d="M199.17,99.42a12.38,12.38,0,0,1-3.89,2.43,12.83,12.83,0,0,1-4.76.89,12.14,12.14,0,0,1-4.84-1,13.19,13.19,0,0,1-4-2.64,12.42,12.42,0,0,1-2.6-13.56,12.82,12.82,0,0,1,2.63-4,12.31,12.31,0,0,1,3.9-2.67,11.92,11.92,0,0,1,4.81-1,10.24,10.24,0,0,1,6.72,2.3,13.7,13.7,0,0,1,4.14,5.86c-1.47.57-3.07,1.2-4.78,1.9l-5.28,2.14-5.33,2.18q-2.64,1.08-5,2a10.17,10.17,0,0,0,9.5,6.32,10.52,10.52,0,0,0,3.93-.73,10,10,0,0,0,3.19-2l1.59,1.53Zm-.55-13.92a9.39,9.39,0,0,0-3.22-3.92,8.45,8.45,0,0,0-4.94-1.47,9.79,9.79,0,0,0-4,.82,10.74,10.74,0,0,0-3.25,2.21A10.26,10.26,0,0,0,181,86.39a10,10,0,0,0-.8,4,8.91,8.91,0,0,0,.09,1.29c.06.4.14.81.22,1.22l4.41-1.81,4.7-1.9,4.66-1.87Q196.6,86.37,198.62,85.5Z"/><path class="cls-1" d="M218.25,78.57H220c0,.17,0,.55,0,1.17s0,1.27,0,2,0,1.34,0,1.93,0,1,0,1.08a11.06,11.06,0,0,1,4-4.79,10.87,10.87,0,0,1,6.25-1.84,7.44,7.44,0,0,1,5.43,2,7.25,7.25,0,0,1,2.12,5.09v17.18h-2.15V85.5a5.76,5.76,0,0,0-1.53-3.68,5.68,5.68,0,0,0-4.11-1.65,10.59,10.59,0,0,0-3.8.67,10.07,10.07,0,0,0-3.1,1.84,8.88,8.88,0,0,0-2.12,2.82,8.13,8.13,0,0,0-.79,3.56v13.25h-2.09Z"/><path class="cls-1" d="M256.69,90.41a12.49,12.49,0,0,1,.95-4.91,11.81,11.81,0,0,1,2.63-3.92A12.5,12.5,0,0,1,264.2,79,12.25,12.25,0,0,1,269,78a11.7,11.7,0,0,1,3.56.52,10.92,10.92,0,0,1,3,1.44,12.47,12.47,0,0,1,2.34,2.12,9.67,9.67,0,0,1,1.56,2.54V55.82h2.15v46.49h-2.15V99.42q0-.86.06-1.65c0-.53.06-1.06.06-1.6a11.64,11.64,0,0,1-4.05,4.67,11.32,11.32,0,0,1-6.56,1.9,12,12,0,0,1-4.87-1,12.79,12.79,0,0,1-3.9-2.64,11.77,11.77,0,0,1-2.57-3.9,12.38,12.38,0,0,1-.92-4.81Zm2.14,0a10.22,10.22,0,0,0,3,7.27,10,10,0,0,0,3.28,2.17,10.63,10.63,0,0,0,8.09,0,10,10,0,0,0,3.28-2.17,10.22,10.22,0,0,0,3-7.27,10.41,10.41,0,0,0-.8-4,10,10,0,0,0-5.46-5.46,10.75,10.75,0,0,0-8.09,0,10,10,0,0,0-5.46,5.46A10.41,10.41,0,0,0,258.83,90.41Z"/><path class="cls-1" d="M300.52,90.47a12.1,12.1,0,0,1,1-4.84A12.5,12.5,0,0,1,308,79a11.94,11.94,0,0,1,4.82-1,11.55,11.55,0,0,1,6.5,2,12,12,0,0,1,2.36,2.12,9.67,9.67,0,0,1,1.56,2.54q0-1.53.06-3.06c0-1,.11-2,.19-3h1.84v23.74h-2.09V96.24a10,10,0,0,1-3.8,4.6,11.44,11.44,0,0,1-6.62,1.9,12.09,12.09,0,0,1-4.88-1,12.74,12.74,0,0,1-3.89-2.64,12.23,12.23,0,0,1-3.56-8.65Zm2.08-.06a10.22,10.22,0,0,0,3,7.27,10,10,0,0,0,3.28,2.17,10.65,10.65,0,0,0,8.1,0,10.5,10.5,0,0,0,3.31-2.17,10,10,0,0,0,3-7.27,10.41,10.41,0,0,0-.79-4,10,10,0,0,0-2.21-3.28A10.53,10.53,0,0,0,317,80.9a10.78,10.78,0,0,0-8.1,0,10,10,0,0,0-5.46,5.46A10.41,10.41,0,0,0,302.6,90.41Z"/><path class="cls-1" d="M345.68,78.57h1.78c0,.17,0,.55,0,1.17s0,1.27,0,2,0,1.34,0,1.93,0,1,0,1.08a11.06,11.06,0,0,1,4-4.79,10.87,10.87,0,0,1,6.25-1.84,7.44,7.44,0,0,1,5.43,2,7.25,7.25,0,0,1,2.12,5.09v17.18h-2.15V85.5a5.76,5.76,0,0,0-1.53-3.68,5.68,5.68,0,0,0-4.11-1.65,10.59,10.59,0,0,0-3.8.67,10.07,10.07,0,0,0-3.1,1.84,8.88,8.88,0,0,0-2.12,2.82,8.13,8.13,0,0,0-.79,3.56v13.25h-2.09Z"/><path class="cls-1" d="M402.37,98.44c.25.25.48.5.71.77s.44.54.64.83a13.61,13.61,0,0,1-3.55,2,12,12,0,0,1-4.24.74,12.14,12.14,0,0,1-4.84-1,13.19,13.19,0,0,1-4-2.64,12.14,12.14,0,0,1-3.58-8.71,12.34,12.34,0,0,1,.95-4.85,11.81,11.81,0,0,1,2.63-3.92,13.19,13.19,0,0,1,4-2.64,12.56,12.56,0,0,1,9.11-.24,13.48,13.48,0,0,1,3.58,2,6.45,6.45,0,0,1-.67.8,7.31,7.31,0,0,0-.74.86,10.32,10.32,0,0,0-2.94-1.66,10,10,0,0,0-3.5-.61,10.21,10.21,0,0,0-7.33,3,10,10,0,0,0-2.17,3.28,10.41,10.41,0,0,0-.8,4,10.08,10.08,0,0,0,6.23,9.44,10.09,10.09,0,0,0,4.07.8,10.41,10.41,0,0,0,3.5-.58A9.79,9.79,0,0,0,402.37,98.44Z"/><path class="cls-1" d="M439.6,99.42a12.38,12.38,0,0,1-3.89,2.43,12.81,12.81,0,0,1-4.75.89,12.15,12.15,0,0,1-4.85-1,13,13,0,0,1-3.95-2.64,11.8,11.8,0,0,1-2.64-3.9,12.57,12.57,0,0,1,0-9.66,12.67,12.67,0,0,1,2.64-4,12.15,12.15,0,0,1,3.89-2.67,11.94,11.94,0,0,1,4.82-1,10.23,10.23,0,0,1,6.71,2.3,13.7,13.7,0,0,1,4.14,5.86c-1.47.57-3.07,1.2-4.78,1.9l-5.28,2.14-5.33,2.18q-2.64,1.08-5,2a10.17,10.17,0,0,0,9.51,6.32,10.47,10.47,0,0,0,3.92-.73,10,10,0,0,0,3.19-2l1.59,1.53Zm-.55-13.92a9.32,9.32,0,0,0-3.22-3.92,8.41,8.41,0,0,0-4.93-1.47,9.83,9.83,0,0,0-4,.82,10.74,10.74,0,0,0-3.25,2.21,10.26,10.26,0,0,0-2.18,3.25,10,10,0,0,0-.8,4,7.67,7.67,0,0,0,.1,1.29c.06.4.13.81.21,1.22l4.42-1.81,4.69-1.9,4.66-1.87Q437,86.37,439.05,85.5Z"/></g></g></svg>