<svg xmlns="http://www.w3.org/2000/svg" viewBox="0 0 248.25 122.09"><defs><style>.cls-1,.cls-2{fill:#fff;}.cls-2{fill-rule:evenodd;}</style></defs><g id="Layer_2" data-name="Layer 2"><g id="Layer_1-2" data-name="Layer 1"><path class="cls-1" d="M23.07,121.72H20.2V102.11h5.68c4.69,0,6.92,2.44,6.92,5.94S30.57,114,25.88,114H23.07Zm0-10.36h2.81c3.26,0,4.05-1.86,4.05-3.31s-.79-3.32-4.05-3.32H23.07Z"/><path class="cls-1" d="M44.07,121.72V102.11h2.86v17h6.81v2.62Z"/><path class="cls-1" d="M73.06,122.09A10.18,10.18,0,1,1,83.27,112,10.2,10.2,0,0,1,73.06,122.09Zm0-17.73c-5.06,0-7.34,4.43-7.34,7.55a7.35,7.35,0,1,0,7.34-7.55Z"/><path class="cls-1" d="M113.29,121.72V105.16h-.08l-6.6,16.56h-1.72l-6.63-16.56h-.05v16.56H95.35V102.11h4.51l5.88,15,5.91-15h4.51v19.61Z"/><path class="cls-1" d="M129.26,102.11h5.09c5.54,0,6.12,4,6.12,5.43a4.45,4.45,0,0,1-1.75,3.71,5.26,5.26,0,0,1,2.91,4.78c0,2-1.11,5.69-6.51,5.69h-5.86Zm2.86,8.16h2.33c2.68,0,3.16-1.61,3.16-2.75,0-2.79-2.68-2.79-3.32-2.79h-2.17Zm0,8.83h3.1c2.89,0,3.55-2.07,3.55-3.07a3.29,3.29,0,0,0-.69-1.94,3.6,3.6,0,0,0-3.2-1.19h-2.76Z"/><path class="cls-1" d="M153.61,121.72V102.11h10.58v2.62h-7.72v5.78h7.72v2.63h-7.72v6h7.72v2.62Z"/><path class="cls-1" d="M185.93,121.72l-6.47-9.09h-.05v9.09h-2.87V102.11h6.07c2.76,0,4.19.66,5.22,1.64a6.49,6.49,0,0,1,1.81,4.64,5.64,5.64,0,0,1-5.62,6l5.48,7.31Zm-6.52-9.49h2c1.17,0,5.4,0,5.4-3.84,0-1.64-1.11-3.66-4.34-3.66h-3Z"/><path class="cls-1" d="M201.7,121.72V102.11h2.86v19.61Z"/><path class="cls-1" d="M217.47,121.72V102.11H228v2.62h-7.71v5.78H228v2.63h-7.71v6H228v2.62Z"/><path class="cls-1" d="M45.09,60.46,31.56,29.86,17.85,60.46l-2.59,5.87L6.9,85H0L27.93,23.48h7.42L63.29,85H55.87L47.68,66.33Z"/><path class="cls-1" d="M68.12,79.17l45.7-49.83H71.05V23.48h51.39v5.86l-46,49.83h46.65V85h-55Z"/><path class="cls-1" d="M185.13,61.24c0,11.21-3.1,25.35-27.5,25.35s-27.5-14.14-27.5-25.35V23.48h6.38V61.24c0,16.12,10.43,19.49,21.12,19.49s21.13-3.37,21.13-19.49V23.48h6.37Z"/><path class="cls-1" d="M193.67,23.48h33.54c10.43,0,20,3.7,20,16.64A15,15,0,0,1,235.14,55v.18c8.72,1.38,10.52,7,11,17.07.17,3.87.69,11.38,2.15,12.76h-6.9c-1.12-1.3-1.55-5.87-1.64-12.59C239.54,61.59,235.4,58,224.8,58H200.06V85h-6.39Zm6.39,28.62h27c7,0,13.28-2.59,13.28-12,0-9.06-6.81-10.78-12.68-10.78H200.06Z"/><path class="cls-2" d="M157.63,0a65.07,65.07,0,0,0,7.45,12.08c3.67,5,6.83,9.37,6.83,14.54a14.28,14.28,0,0,1-28.56,0c0-5.17,3.16-9.51,6.83-14.54A65.07,65.07,0,0,0,157.63,0Z"/></g></g></svg>