<svg xmlns="http://www.w3.org/2000/svg" viewBox="0 0 138.4 97.13"><defs><style>.cls-1{fill:#fff;}</style></defs><g id="Layer_2" data-name="Layer 2"><g id="Layer_1-2" data-name="Layer 1"><path class="cls-1" d="M137.33,29.77a12.33,12.33,0,0,1-2.67,6.37,10.89,10.89,0,0,1-4.76,3.36,18.82,18.82,0,0,1-6.07.9q-9.21,0-9.21-6.84V6.87c0-3.44,1.7-5.15,5.1-5.15V.59H102.33V1.72c3.39,0,5.09,1.71,5.09,5.15V35.31q0,5.17-5.06,5.18l0,1H137.7l.7-11.71Z"/><path class="cls-1" d="M73.61,51.4l-.28,1.47a.88.88,0,0,0,.55,1h.19a.9.9,0,0,0,.83-.65l.36-1.47a.85.85,0,0,0-.64-1A.9.9,0,0,0,73.61,51.4Z"/><path class="cls-1" d="M114.1,60.21c-4.4,4.5-6.42,5.14-7.25,5s-1.29-1.56-1.75-2.94l-.27-1a1.86,1.86,0,0,0-1.56-1.38c-1.65-.27-4,1.93-5.51,3.77a18.28,18.28,0,0,1,1-5.51.78.78,0,0,0-.46-1,.81.81,0,0,0-1.1.46,20.75,20.75,0,0,0-.62,2.37,1,1,0,0,0-.24,0c-.27.18-3,1.19-6.61,2.94.55-4.5.83-8,.83-9.1A.72.72,0,0,0,90,53a.67.67,0,0,0-.92.37c-.55.91-1.2,1.83-1.75,2.57-1.65.46-5.69,1.92-7.62,4.31a3.69,3.69,0,0,0-.51,1C76,64.83,75,64.52,74.9,64.44c-1-.46-.92-4.5-.19-7.81a.92.92,0,0,0-.64-1,1,1,0,0,0-1,.64,36,36,0,0,0-.5,3.74,26.16,26.16,0,0,0-7.86,1.68c-1.65-1.93-2.29-3.67-1.83-5a2.86,2.86,0,0,1,1.93-1.56c.55-.09,1.1,0,1.28.37a1.44,1.44,0,0,1,.55,1.28,1.93,1.93,0,0,1-.73,1.2.75.75,0,0,0-.19,1.1.77.77,0,0,0,1.11.18A3.15,3.15,0,0,0,68.29,57a3.45,3.45,0,0,0-.92-2.67,2.88,2.88,0,0,0-2.85-.82,4.08,4.08,0,0,0-3.12,2.57A5.29,5.29,0,0,0,61.65,60a.85.85,0,0,0-.25.13C57.82,63,51.94,66.64,50,65.72c-.18-.09-.73-.27-.73-1.74a10.41,10.41,0,0,1,.27-2.48c1.47-.19,5.24-1.1,6.16-4.87a1.85,1.85,0,0,0-.46-2.2c-.28-.28-1.11-.65-2.48,0a9.83,9.83,0,0,0-4.69,6.17c-1,1.34-3.44,4-5.57,3.38-1.1-.28-2.84-1.66-4.13-6.8a120.31,120.31,0,0,0,10.75-16.8A28.81,28.81,0,0,0,52.6,29.07a20.41,20.41,0,0,0,9.09,10.35,24.5,24.5,0,0,0,11.9,2.73q11.53,0,15.53-9.26l-1.07-.31q-4.14,8-14.1,8.05-14.57,0-14.57-19.16a24.7,24.7,0,0,1,3.8-13.93q4-6,10-6,10.86,0,13.62,11.11L88,12.52l-.73-12H86.11Q86,3.1,82.2,1.8A28.43,28.43,0,0,0,73.42,0,23.23,23.23,0,0,0,61.69,3a20.15,20.15,0,0,0-7.85,7.77,21.75,21.75,0,0,0-2.66,10.37,9.53,9.53,0,0,0-1.41-2,5.91,5.91,0,0,0-6.89-1.65C41,18.23,35.81,21.8,35,35.51c-2.83,3.4-6.87,5.12-12.16,5.12q-14.58,0-14.57-19.16A24.7,24.7,0,0,1,12,7.54q4-6,10-6,10.86,0,13.61,11.11l1.13-.11-.73-12H34.94Q34.81,3.1,31,1.8A28.37,28.37,0,0,0,22.25,0,23.23,23.23,0,0,0,10.52,3a20.22,20.22,0,0,0-7.85,7.77A22,22,0,0,0,0,21.47,20.22,20.22,0,0,0,2.81,31.9a20,20,0,0,0,7.71,7.52,24.52,24.52,0,0,0,11.9,2.73c5.38,0,9.51-1.53,12.43-4.54a85.34,85.34,0,0,0,.32,9.65A64.14,64.14,0,0,0,36.36,56c-1.65-.19-4.41.46-7.25,4.68-1,1.47-1.38,2.57-.92,3.31a1.22,1.22,0,0,0,1.19.73c1.38,0,4-1.83,7.72-6,1.19,4,2.84,6.25,5,6.89a4.15,4.15,0,0,0,1,.09,7.15,7.15,0,0,0,4.57-2.18c0,.15,0,.29,0,.44,0,2,.92,2.84,1.66,3.21a2.66,2.66,0,0,0,1.47.37c3.94-.09,10.25-5,11.65-6.14a13.93,13.93,0,0,0,.84,1.18,2.32,2.32,0,0,0-.92,1.47A2.89,2.89,0,0,0,65,66.82a1.61,1.61,0,0,0,1.29-.64c.55-.73.36-1.74-.56-3.12a24.83,24.83,0,0,1,6.8-1.39c0,1.9.42,3.67,1.65,4.24a2.78,2.78,0,0,0,.92.18c1.3,0,2.87-1.11,5-3.4a1.06,1.06,0,0,0,.33.09c1.38,0,4.78-1.74,7.9-5.51h.19c.09,0,.18-.09.27-.09-.18,2.11-.46,4.41-.73,6.61-6.34,3.49-14.33,9.09-16.72,16.35-1.47,4.31-.73,8.81,2.12,13.13q2.47,3.86,4.95,3.86a2.44,2.44,0,0,0,.83-.19c5.69-1.47,8.82-19.65,10.38-32,3-1.59,5.6-2.71,6.73-3.17A32,32,0,0,0,96,66a.89.89,0,0,0,.55.82.75.75,0,0,0,.92-.36c1.93-2.48,4.5-5.15,5.51-5,.09,0,.19.27.28.36l.27,1c.55,1.66,1.2,3.58,2.94,4a1.63,1.63,0,0,0,.65.09c1.92,0,4.4-1.74,8.17-5.51a.88.88,0,0,0-.09-1.19A.76.76,0,0,0,114.1,60.21ZM29.66,63.06a5,5,0,0,1,.73-1.47c2.3-3.31,4.32-4,5.51-4C32.78,61.22,30.58,62.78,29.66,63.06Zm7.16-16C35.26,29.17,39.3,20.82,43.52,19a3.93,3.93,0,0,1,1.75-.46,4.32,4.32,0,0,1,3.31,1.65c3,3.22,3.85,10.47-.92,19.38a105.21,105.21,0,0,1-9.83,15.61C37.46,53.05,37.1,50.39,36.82,47.08Zm16,9.18a2.84,2.84,0,0,1,1.38-.64s.09.18-.1.64c-.55,2.3-2.66,3.13-4,3.49A8.7,8.7,0,0,1,52.86,56.26Zm11.29,8.45a.39.39,0,0,1-.18-.46c0-.09.09-.18.28-.37A3.93,3.93,0,0,1,65,65.17,1.09,1.09,0,0,1,64.15,64.71Zm17.32-3.9a.06.06,0,0,0,0,0,11.41,11.41,0,0,1,3.21-2.12A14.32,14.32,0,0,1,81.47,60.81ZM78.81,95.38c-1.47.37-3-1.38-4-2.94-2.57-3.94-3.21-7.89-1.93-11.75,2.12-6.43,9-11.48,14.88-14.78C86,79.77,82.85,94.37,78.81,95.38Z"/></g></g></svg>