<svg xmlns="http://www.w3.org/2000/svg" viewBox="0 0 1199.98 420.57"><defs><style>.cls-1{fill:#fff;}</style></defs><g id="Layer_2" data-name="Layer 2"><g id="Layer_1-2" data-name="Layer 1"><path class="cls-1" d="M660,420.57c-10-1.83-20.2-2.73-29.82-5.66-38.45-11.72-66.59-36.62-85.68-71.28C516.92,293.57,512.83,241.2,538,189.46,566.62,130.63,615.66,102,681.17,104c41,1.25,75.56,17.24,100.86,50.58A124.8,124.8,0,0,1,791,169c.59,1,.53,3.53-.2,4.1-20.52,15.9-41.16,31.64-62.1,47.65-6-12.6-14-23-25.41-30.45-29.24-19.25-63.73-11.63-80.52,19.07-17.74,32.43-18.51,66.53-3,99.85,16.61,35.79,56.84,45.4,90.23,22.66,7.16-4.88,13.4-11.12,20.06-16.73-.28-.51-.55-1-.82-1.53h-53V252.09h128V417.63H733.1V394c-7.23,5-13.78,10.05-20.85,14.22a84.57,84.57,0,0,1-37.36,11.51c-1.64.12-3.27.53-4.9.81Z"/><path class="cls-1" d="M351,420.57c-8.76-1.8-17.72-3-26.25-5.53-44-13.22-75.3-41.79-93.47-83.24C203.4,268.24,210.59,208,255.81,154.64c53.64-63.24,151.19-69.18,211-9.19C532.13,211,532.25,319,463,382.65a140.85,140.85,0,0,1-81.24,37.05,15.23,15.23,0,0,0-2.79.87ZM302.81,262.39c.12,16.49,2.81,32.47,10.17,47.37,10.49,21.22,27,34.07,51.29,34.62,24.09.54,41.8-10.91,52.09-32.18,15.81-32.69,16.39-66.22.56-99.1-10.13-21-27.55-32.57-51.36-32.73s-40.4,11.5-51.33,31.95C305.89,227.94,303,244.87,302.81,262.39Z"/><path class="cls-1" d="M1200,106.89c-6.44,9.44-13,18.8-19.3,28.33q-41.28,62.49-82.5,125c-2,3-1.9,4.92,0,7.84q47.61,72.38,95,144.88c.9,1.37,1.75,2.77,3,4.8-2.13.13-3.69.3-5.24.3-27.5,0-55-.07-82.5.1-3.73,0-5.6-1.34-7.34-4.44q-23.55-42-47.35-83.89c-1-1.69-2-3.35-3.25-5.47L1009,397.89c-3.28,5.79-6.47,11.64-10,17.3-.8,1.3-2.66,2.75-4,2.76-29.81.16-59.63.12-90.29.12,1-1.76,1.6-3,2.35-4.14q47.72-72.89,95.53-145.72c2.06-3.13,2-5.16,0-8.26q-49.77-75.13-99.27-150.44c-.61-.93-1.17-1.9-2.08-3.38,1.85-.1,3.1-.23,4.35-.23,28,0,56,.06,84-.1,3.52,0,5.29,1.21,7,4.14Q1022,154.55,1047.79,199c.82,1.43,1.67,2.86,2.86,4.88,6.4-11.07,12.54-21.7,18.67-32.33,11.81-20.47,23.71-40.88,35.33-61.45,1.81-3.2,3.71-4.34,7.33-4.32,29.33.14,58.66.08,88,.08Z"/><path class="cls-1" d="M0,105.89H85.92V343.15H227.1v74.92h-5.74q-107.47,0-214.94,0c-2.14,0-4.28.32-6.42.48Z"/><path class="cls-1" d="M274,0c10.45,2.22,17.77,8.06,20.74,18.51,2.79,9.83-.21,24.58-16.18,30.36,6.17,9.71,12.27,19.29,18.69,29.38-5.2.93-9,1.14-11.9-4.15a226.74,226.74,0,0,0-13.44-21,8.08,8.08,0,0,0-5.44-3c-6.25-.38-12.54-.15-19.33-.15V78.47h-7.72c-.09-1.73-.24-3.33-.24-4.94,0-22.6-.06-45.21.07-67.82,0-1.91,1.14-3.81,1.76-5.71ZM247.45,42.9c8.72,0,16.89.22,25-.06,8.62-.3,14.49-7,15.28-16.72.64-7.92-5.28-17.27-12.75-18-9-.86-18.18-.21-27.56-.21Z"/><path class="cls-1" d="M501,0c9.51,3.52,17.69,8.63,23.12,17.64,9.95,16.49,7.6,38.58-5.87,51.41-10,9.52-21.94,12.57-35,8.55-13.7-4.2-21.71-14.4-25.09-28-6-24,9.78-45.46,28.13-49,.28-.05.49-.41.73-.63Zm-36.3,42.15c.74,2.67,1.51,8,3.66,12.77C477.4,74.9,502,78,515.18,61c9.87-12.72,9.51-31.32-.85-43.88C504.66,5.41,487.9,3.74,476.5,13.49,468.55,20.3,465.14,29.25,464.69,42.15Z"/><path class="cls-1" d="M49,0c6.94,2.68,14,5.24,18.46,11.76,1.1,1.6,2.11,3.27,3.4,5.28l-6.14,4.05C57.77,9.8,48,5.12,35.28,7.74,21.93,10.49,12.83,23.37,12.5,39.14c-.31,15,9.38,28.63,22.86,32.05,10.56,2.68,24-1.79,29.44-11.14,2.06-3.54,1.1-8.84,1.56-13.81H49.25V40.43H72.74V78.35H66.15V68.47A13.54,13.54,0,0,0,64,69.79C47.26,86.18,20.14,80.68,8.79,57.53-2.39,34.72,10,5.62,33.29.65c.27-.06.47-.43.71-.65Z"/><path class="cls-1" d="M1199,0V7.51h-43.56v27.8h37.72v6.78H1155.5V71.93H1200v7h-52c-.19-1.76-.46-3-.46-4.32q0-35.08,0-70.18A41.2,41.2,0,0,1,1148,0Z"/><path class="cls-1" d="M964,0c4.84,3,10.61,5.09,14.33,9.1,7.35,7.93,8,17.75,3.5,27.46-4.32,9.41-12,13.75-22.48,13.43-7.46-.23-14.94,0-22.86,0V78.41H929V0ZM936.86,7.66v35.2c8.5,0,16.63.27,24.74-.07,8.69-.37,14.72-7.75,14.85-17.44.12-9-6-17.06-14.26-17.58S945.65,7.66,936.86,7.66Z"/><path class="cls-1" d="M702,0c0,13.8-.43,27.61.19,41.38a56.39,56.39,0,0,0,4.23,18.71c3.35,8.09,10.53,11.53,19.22,11.87,9.17.35,17.45-2.18,21.37-10.75a61.59,61.59,0,0,0,4.94-21c.78-11.59.18-23.26.25-34.9A37.4,37.4,0,0,1,753,0h7c-.29,17.11.79,34.38-1.2,51.29-3,25.33-24.35,31.93-44,25.9C703,73.56,696.66,64,695.59,52.66c-1.56-16.5-1.09-33.2-1.29-49.81,0-.94,1.75-1.9,2.69-2.85Z"/><path class="cls-1" d="M896.94,106.17v311.6H811.55V106.17Z"/></g></g></svg>