<svg xmlns="http://www.w3.org/2000/svg" viewBox="0 0 397.06 199.02"><defs><style>.cls-1{fill:#fff;}</style></defs><g id="Layer_2" data-name="Layer 2"><g id="Layer_1-2" data-name="Layer 1"><path class="cls-1" d="M158.5,3.61V0h39.21V3.61a32.69,32.69,0,0,0-9,2.62,51.57,51.57,0,0,0-9,5.21q-4.47,3.18-10.1,8l-15.8,14L188.6,76.9A78.64,78.64,0,0,0,194.76,84,16.41,16.41,0,0,0,205,88.9v3.6h-44V88.9q10.48,0,10.49-4.72a6.52,6.52,0,0,0-1-3.38,34.16,34.16,0,0,0-2.82-3.9l-26-32.45-8.19,7.34V76.9c0,3.58.53,6.32,1.6,8.2s3,3,5.8,3.27c1.45.09,2.64.19,3.58.3s1.75.19,2.46.23v3.6H102.13V88.9h2q5.76,0,8.52-1.38a6.52,6.52,0,0,0,3.54-4,24.7,24.7,0,0,0,.78-6.91V15a17.88,17.88,0,0,0-1-6.72,6.66,6.66,0,0,0-4.16-3.5q-3.18-1.18-9.73-1.18V0h44.71V3.61h-.92q-7.68,0-10.1,2.42c-1.62,1.62-2.42,4.35-2.42,8.2V46.88L160,23.08a50.26,50.26,0,0,0,6.72-7,9.86,9.86,0,0,0,2.26-5.8,6.13,6.13,0,0,0-2.06-4.79,8.56,8.56,0,0,0-5.87-1.83ZM123.36,77.49V15.54q0-7.21-1.57-9.61c-1.05-1.59-3.58-2.37-7.6-2.32q3.21,1.44,4.09,3.54c.59,1.4.89,4.56.89,9.5V78.54c0,3.28-.36,5.59-1.08,6.95a8.37,8.37,0,0,1-4.43,3.41h1.64q4,0,5.71-1.28a5.13,5.13,0,0,0,2-3.48A49.16,49.16,0,0,0,123.36,77.49Zm49.5-3.93-26.55-33.3-2.95,2.68,24.71,31.47a48.58,48.58,0,0,1,4.17,5.64,8.5,8.5,0,0,1,1.34,4.39q0,2.82-3.21,4.46h1.71a5.92,5.92,0,0,0,4.26-1.58A4.94,4.94,0,0,0,178,83.65Q178,79.91,172.86,73.56ZM183.48,3.61H168.07q3.09,2.55,3.09,5.63a9.5,9.5,0,0,1-1,4.07c3-2.71,5.31-4.73,7-6.06A28.78,28.78,0,0,1,183.48,3.61Z"/><path class="cls-1" d="M264.05,92.5H210.56V88.9h1.51q6.09,0,8.75-1.67A6.58,6.58,0,0,0,224,82.84a51.75,51.75,0,0,0,.52-8.76V16a26.11,26.11,0,0,0-.82-7.58A5.91,5.91,0,0,0,220,4.75c-1.93-.76-5.07-1.14-9.44-1.14V0h51.33a41.08,41.08,0,0,1,12.52,1.81,29.25,29.25,0,0,1,9.64,5,23.31,23.31,0,0,1,6.13,7.45,19.91,19.91,0,0,1,2.19,9.24,18.48,18.48,0,0,1-2.75,9.87,21.56,21.56,0,0,1-8.39,7.54,41.45,41.45,0,0,1-13.7,4.23q13.25,1.77,20.32,8.22a20.9,20.9,0,0,1,7.08,16.1,20,20,0,0,1-2.16,9.21A21.52,21.52,0,0,1,286.54,86a30,30,0,0,1-9.83,4.82A44.46,44.46,0,0,1,264.05,92.5ZM230.88,78.15V12.33c0-3-.59-5.17-1.77-6.59s-3.37-2.13-6.55-2.13h-1.38a6.7,6.7,0,0,1,4.32,3.11q1.19,2.2,1.19,7.11V78.54q0,5-1.28,7.08a8.4,8.4,0,0,1-4.23,3.28h1.9q5.11,0,6.46-3.05A19.26,19.26,0,0,0,230.88,78.15Zm10-35.08h12.26q8.85,0,13-2.09a14.3,14.3,0,0,0,6.13-6.66,23.48,23.48,0,0,0,2.33-10.59,25.66,25.66,0,0,0-1.48-8.81A17.45,17.45,0,0,0,269,8.19a12.82,12.82,0,0,0-6.19-3.77,40.57,40.57,0,0,0-9.08-.81q-7.48,0-10.13,2.29t-2.66,7.93Zm0,3.67V78.67A14.25,14.25,0,0,0,241.7,84,6.38,6.38,0,0,0,244.35,87,11.76,11.76,0,0,0,249,88.54a61.12,61.12,0,0,0,7.53.36,23.38,23.38,0,0,0,11.18-2.39,15.26,15.26,0,0,0,6.62-7,25.38,25.38,0,0,0,2.2-11.11A25,25,0,0,0,274,56.94a17.8,17.8,0,0,0-7.11-7.54,21.86,21.86,0,0,0-11.05-2.66Zm24.32.14a20,20,0,0,1,10,7.73q3.45,5.25,3.45,13.84,0,16.38-13.18,21,8.44-1,12.81-6.58t4.36-15.31q0-9-4.62-14.52T265.23,46.88Zm.79-3.81q15-3.87,15-19.73a25.37,25.37,0,0,0-1.71-9.47,16.66,16.66,0,0,0-5.14-7,15.45,15.45,0,0,0-8.49-3.21,16.25,16.25,0,0,1,8.26,7.57,26.81,26.81,0,0,1,2.88,12.88Q276.77,37.83,266,43.07Z"/><path class="cls-1" d="M124,111.48l.38,9.86h-1.21a20.64,20.64,0,0,0-2.32-3.76,15.31,15.31,0,0,0-2.68-2.71,10.12,10.12,0,0,0-2.91-1.58,9.81,9.81,0,0,0-3.15-.51,8.62,8.62,0,0,0-5.49,1.9,12.11,12.11,0,0,0-3.74,5.27,20.87,20.87,0,0,0-1.33,7.73,19.31,19.31,0,0,0,1.46,7.73,12.76,12.76,0,0,0,4,5.27,8.83,8.83,0,0,0,5.42,1.88,7.82,7.82,0,0,0,3.21-.67,5.32,5.32,0,0,0,2.24-1.75,4.36,4.36,0,0,0,.78-1.78,13.3,13.3,0,0,0,.18-2.39,14.86,14.86,0,0,0-.23-3.16,1.82,1.82,0,0,0-1.13-1.28,11.38,11.38,0,0,0-3.08-.54v-1.28h14.49V131a11.64,11.64,0,0,0-3.07.52,1.94,1.94,0,0,0-1.15,1.25,11.41,11.41,0,0,0-.29,3.07v5a27,27,0,0,1-4,1.69,31.58,31.58,0,0,1-4.32,1.13,23.41,23.41,0,0,1-4.3.4,18.89,18.89,0,0,1-7.06-1.25,14.63,14.63,0,0,1-5.29-3.51,15.1,15.1,0,0,1-3.24-5.2,17.65,17.65,0,0,1-1.09-6.19,18.21,18.21,0,0,1,1.08-6.19,16.55,16.55,0,0,1,3.12-5.35,14.5,14.5,0,0,1,11.17-5,25.57,25.57,0,0,1,5.3.64,26.21,26.21,0,0,0,3.76.65,3.33,3.33,0,0,0,2.89-1.12Zm-15.42,31.77a33.8,33.8,0,0,1-3.75-1.93,15.83,15.83,0,0,1-3.15-2.65,16.4,16.4,0,0,1-3.28-5.17,15.25,15.25,0,0,1-1.16-5.75A16.56,16.56,0,0,1,98.76,121a17.86,17.86,0,0,1,4-5.81,13.48,13.48,0,0,1,2.41-1.82q1.13-.63,2.67-1.32a13.64,13.64,0,0,0-2.55.69,12.55,12.55,0,0,0-3.65,2.22,16.4,16.4,0,0,0-3.07,3.55A17.15,17.15,0,0,0,96.54,123a16.31,16.31,0,0,0-.72,4.82A17.05,17.05,0,0,0,97,134a14.77,14.77,0,0,0,3.26,5.16,13.31,13.31,0,0,0,2.59,2,14.47,14.47,0,0,0,2.58,1.2C106.26,142.63,107.33,142.93,108.62,143.25Zm10.95-8.89v2.95a5.7,5.7,0,0,1-.71,2.69,5.53,5.53,0,0,1-2.33,2.2,7.41,7.41,0,0,0,2.74-1.08,3.8,3.8,0,0,0,1.38-1.83,8.35,8.35,0,0,0,.42-2.9,21.14,21.14,0,0,0-.17-3.18,2.39,2.39,0,0,0-.85-1.52,4.14,4.14,0,0,0-2.18-.7,4.67,4.67,0,0,1,1.26,1.3A4,4,0,0,1,119.57,134.36Zm2.32-16.87-.31-4.06a4.85,4.85,0,0,1-1.65.4,6.17,6.17,0,0,1-.9-.06,7.21,7.21,0,0,1-.89-.17l-.69-.17A17.39,17.39,0,0,1,121.89,117.49Z"/><path class="cls-1" d="M146.24,143.43H130.76V142.2a13.64,13.64,0,0,0,3.22-.35,2.17,2.17,0,0,0,1.44-1.08,5.8,5.8,0,0,0,.39-2.46V117.45a7.7,7.7,0,0,0-.34-2.66,2.09,2.09,0,0,0-1.37-1.23,12.05,12.05,0,0,0-3.34-.42v-1.23h17.63a13.71,13.71,0,0,1,5.82,1.15,8.7,8.7,0,0,1,3.75,3.06,7.32,7.32,0,0,1,1.26,4.12,7.08,7.08,0,0,1-.58,2.82,8.06,8.06,0,0,1-1.67,2.5,10.34,10.34,0,0,1-2.65,1.91,12.14,12.14,0,0,1-3.61,1.12,55.87,55.87,0,0,1,3.8,4.36l2.21,2.61.45.51c.17.2.41.45.69.77.72.86,1.32,1.57,1.81,2.13s1,1.06,1.46,1.51a9.71,9.71,0,0,0,1.42,1.08,5.92,5.92,0,0,0,1.48.64v1.23h-4.2a5.91,5.91,0,0,1-2.71-.64,9.53,9.53,0,0,1-2.44-1.8,30.64,30.64,0,0,1-2.67-3.06l-3.13-4a49.49,49.49,0,0,0-3.23-3.89,2.92,2.92,0,0,0-1.84-1.09h-2.48v9.48a5.77,5.77,0,0,0,.35,2.21,2.33,2.33,0,0,0,1.57,1.16,10.17,10.17,0,0,0,1.59.29,10.65,10.65,0,0,0,1.4.09Zm-9.72-26.16v22A2.93,2.93,0,0,1,135,142.2c2,0,2.93-.8,2.93-2.26V117.4a13.06,13.06,0,0,0-.19-2.6,2,2,0,0,0-.87-1.31,3.7,3.7,0,0,0-2.09-.35,2.48,2.48,0,0,1,1.46,1.35A8.77,8.77,0,0,1,136.52,117.27Zm4.81.4v10.08H145a11.31,11.31,0,0,0,3.62-.6,7,7,0,0,0,2.7-1.48,6.89,6.89,0,0,0,1.83-5.25c0-2.79-.94-4.83-2.84-6.14a5.58,5.58,0,0,0-2.1-.92,14.31,14.31,0,0,0-2.79-.22,5.73,5.73,0,0,0-2.6.46,2.18,2.18,0,0,0-1.16,1.38A9.7,9.7,0,0,0,141.33,117.67Zm5.83,11.3h-1.83a13.8,13.8,0,0,1,1.86,1.81c.71.81,1.6,1.9,2.67,3.26s2.15,2.77,3.24,4.18a18,18,0,0,0,2.77,2.92,6.83,6.83,0,0,0,2.26,1.3,8.24,8.24,0,0,0,2.1.34,11.05,11.05,0,0,1-2.66-1.84,29.92,29.92,0,0,1-2.74-3c-1-1.19-2-2.45-3-3.78s-2.11-2.58-3.21-3.75c-.15-.21-.33-.44-.55-.71A3.51,3.51,0,0,0,147.16,129Zm2-1.34a7,7,0,0,0,4.6-2.23,7.41,7.41,0,0,0,1.61-5,7.68,7.68,0,0,0-1.44-4.9,6,6,0,0,0-4.06-2.2,7.08,7.08,0,0,1,3,2.76,9.14,9.14,0,0,1,1,4.61,7.4,7.4,0,0,1-1.17,4.56A8.07,8.07,0,0,1,149.13,127.63Z"/><path class="cls-1" d="M166.73,127.54a18.13,18.13,0,0,1,.38-3.82,16.1,16.1,0,0,1,1.12-3.44,15.49,15.49,0,0,1,4.31-5.58,13.88,13.88,0,0,1,3.12-1.94,15,15,0,0,1,3.64-1.11,24,24,0,0,1,4.18-.34,17.91,17.91,0,0,1,6.86,1.27,15.33,15.33,0,0,1,5.28,3.52,15.8,15.8,0,0,1,3.35,5.2,16.82,16.82,0,0,1,1.16,6.2,16.47,16.47,0,0,1-1.29,6.53,15.75,15.75,0,0,1-3.64,5.28,17,17,0,0,1-5.53,3.48,18.52,18.52,0,0,1-6.84,1.24,17,17,0,0,1-6.43-1.21,15,15,0,0,1-8.49-8.66A18.19,18.19,0,0,1,166.73,127.54ZM175,113.78a15.37,15.37,0,0,0-5.63,5.82,16.37,16.37,0,0,0-1.93,8,17.43,17.43,0,0,0,1.26,6.73,14,14,0,0,0,3.68,5.23,17,17,0,0,0,6,3.37,18.16,18.16,0,0,1-7-6.15,17,17,0,0,1-2.59-9.58,18,18,0,0,1,.68-5.12,15.61,15.61,0,0,1,2.06-4.3A26,26,0,0,1,175,113.78Zm-2.1,11.4a29.56,29.56,0,0,0,.8,7.14,18.54,18.54,0,0,0,2.3,5.62,11.08,11.08,0,0,0,3.54,3.6,8.42,8.42,0,0,0,4.41,1.24,8.71,8.71,0,0,0,7-3.44,12.42,12.42,0,0,0,2.12-4.26,21.13,21.13,0,0,0,.74-5.88,25.12,25.12,0,0,0-.86-6.78,16.92,16.92,0,0,0-2.39-5.3,11.38,11.38,0,0,0-3.6-3.37,8.81,8.81,0,0,0-4.47-1.2,8.41,8.41,0,0,0-3.84.9,8.58,8.58,0,0,0-3,2.55,12.51,12.51,0,0,0-2,4A17.85,17.85,0,0,0,172.92,125.18Zm13.76-12.31a13,13,0,0,1,4.3,3.69,16.66,16.66,0,0,1,2.67,5.64,27.72,27.72,0,0,1,.89,7.22,18.54,18.54,0,0,1-1,6.47,15,15,0,0,1-2.87,4.83,12.8,12.8,0,0,0,3-3.13,12.65,12.65,0,0,0,1.73-4,20.78,20.78,0,0,0,.56-5,23.2,23.2,0,0,0-1.11-7.34,14.27,14.27,0,0,0-3.21-5.56A9.64,9.64,0,0,0,186.68,112.87Z"/><path class="cls-1" d="M208.08,133.82v-17a4.38,4.38,0,0,0-.5-2.4,2.18,2.18,0,0,0-1.43-.91c-.62-.12-1.64-.23-3.05-.35v-1.23h15.14v1.23a17,17,0,0,0-2.68.32,2.23,2.23,0,0,0-1.37.9,4,4,0,0,0-.48,2.22v17.73a8,8,0,0,0,1.1,4.26,6.94,6.94,0,0,0,3.14,2.71,11.33,11.33,0,0,0,4.74.92,11.12,11.12,0,0,0,5-1A7.74,7.74,0,0,0,231,138a10.29,10.29,0,0,0,1.21-5.12v-10.3a23,23,0,0,0-.52-5.47,5.15,5.15,0,0,0-1.72-2.92,6,6,0,0,0-3.39-1v-1.23h11.48v1.23a4.61,4.61,0,0,0-3,1.38,5.93,5.93,0,0,0-1.33,2.94,24.7,24.7,0,0,0-.34,4.5v11.55a10.39,10.39,0,0,1-.88,4.34A9.21,9.21,0,0,1,230,141.2a11.06,11.06,0,0,1-4,2.11,18.37,18.37,0,0,1-5.37.72q-7.2,0-10.64-4a7.81,7.81,0,0,1-1.46-2.73A12.71,12.71,0,0,1,208.08,133.82Zm2.21.13V116.1q0-3.3-3.17-3c1.13.44,1.7,1.52,1.7,3.21v17.83a7.88,7.88,0,0,0,2.23,6,13.66,13.66,0,0,0,6.7,3.14,25.7,25.7,0,0,1-2.92-1.44,11,11,0,0,1-2.26-1.75,7.66,7.66,0,0,1-1.67-2.59A9.55,9.55,0,0,1,210.29,134Zm23.88-20.81h-4.58a4.69,4.69,0,0,1,2.62,3.53,8.1,8.1,0,0,1,.7-2.12A3.7,3.7,0,0,1,234.17,113.14Z"/><path class="cls-1" d="M251,129.11v9.47a4.48,4.48,0,0,0,.39,2.07,2.22,2.22,0,0,0,1.06,1,6.11,6.11,0,0,0,1.9.4c.82.05,1.57.1,2.28.13v1.23H240.43V142.2a21,21,0,0,0,2.71-.2,3,3,0,0,0,1.43-.6,2.23,2.23,0,0,0,.71-1.15,7.7,7.7,0,0,0,.19-1.94V118.63a19.69,19.69,0,0,0-.21-3.48,2.08,2.08,0,0,0-1.27-1.52,9.19,9.19,0,0,0-3.56-.49v-1.23H255.8c.68,0,2.32.11,4.91.35a8.69,8.69,0,0,1,2.67.74,10.74,10.74,0,0,1,2.66,1.71,8.69,8.69,0,0,1,2,2.57,7.08,7.08,0,0,1,.76,3.23A7.86,7.86,0,0,1,268,124a7.42,7.42,0,0,1-2.37,2.71,12,12,0,0,1-4,1.76,22.6,22.6,0,0,1-5.64.63Zm-4.85-10.75v21a2.79,2.79,0,0,1-1.63,2.84h.58c1.65,0,2.48-.78,2.48-2.35V119.41c0-1.83,0-3,0-3.59a4.66,4.66,0,0,0-.29-1.46,1.69,1.69,0,0,0-.92-.88,7,7,0,0,0-2-.39,3,3,0,0,1,1.25,1,3.5,3.5,0,0,1,.47,1.52A27.77,27.77,0,0,1,246.19,118.36Zm4.85,9.52h3.12a14.07,14.07,0,0,0,4.72-.68,5.51,5.51,0,0,0,2.88-2.3,8.19,8.19,0,0,0,1-4.35,7.13,7.13,0,0,0-2.74-6.12,6,6,0,0,0-2.21-1.05,13.55,13.55,0,0,0-2.78-.24,5.24,5.24,0,0,0-2.73.53,2.37,2.37,0,0,0-1.05,1.61,17.73,17.73,0,0,0-.21,3.17Zm8.55-.25a5.88,5.88,0,0,0,4-2.12,9.8,9.8,0,0,0,0-9.86,6.72,6.72,0,0,0-4-2.22,6.79,6.79,0,0,1,2.16,1.69,7,7,0,0,1,1.35,2.46,10.33,10.33,0,0,1,.44,3.06Q263.5,126,259.59,127.63Z"/><path class="cls-1" d="M282.2,127.83v9.83a10.4,10.4,0,0,0,.24,2.54,2.24,2.24,0,0,0,.85,1.34,3.87,3.87,0,0,0,1.8.55c.79.07,1.85.11,3.21.11a12.21,12.21,0,0,0,4.41-.75,13.06,13.06,0,0,0,3.69-2.21,34,34,0,0,0,3.78-3.9H302l-2.79,8.09h-27.5V142.2a12.69,12.69,0,0,0,3-.35,2.42,2.42,0,0,0,1.47-1,3.83,3.83,0,0,0,.44-2v-22.1a4.77,4.77,0,0,0-.41-2.27,2.12,2.12,0,0,0-1.36-1,17,17,0,0,0-3.17-.36v-1.23h26.4l2.71,7.12h-1.61a16,16,0,0,0-3.16-3,17,17,0,0,0-4.18-2.13,14.65,14.65,0,0,0-4.88-.8,8.21,8.21,0,0,0-3.06.43,2.42,2.42,0,0,0-1.37,1.22,5.32,5.32,0,0,0-.33,2v9.75h4.49q5.88,0,5.94-5.39h1.57V133h-1.39a6.31,6.31,0,0,0-1.53-4,5.33,5.33,0,0,0-3.85-1.24Zm-4.85-10.9v21.6a5.5,5.5,0,0,1-.38,2.39,3.3,3.3,0,0,1-1.13,1.28c1.23,0,2-.34,2.4-1a6.52,6.52,0,0,0,.54-3.07V116.53a2.51,2.51,0,0,0-2.94-3.17,2.63,2.63,0,0,1,1.17,1.19A6.1,6.1,0,0,1,277.35,116.93Zm15,12.36v-4.38a5.18,5.18,0,0,1-3.17,2.19,7,7,0,0,1,1.95.8A3.82,3.82,0,0,1,292.36,129.29ZM296,113.14h-4a14.55,14.55,0,0,1,3,1.34,32.92,32.92,0,0,1,2.75,1.87Zm1,29.06,1.55-3.89a13.94,13.94,0,0,1-2.39,2.14c-.72.46-1.73,1.05-3,1.75Z"/><path class="cls-1" d="M27.37,166.38h1.82v9.9H27.81a24.44,24.44,0,0,0-2.27-3.85A14.42,14.42,0,0,0,23,169.66,10,10,0,0,0,20.1,168a9.36,9.36,0,0,0-3.21-.54,8.61,8.61,0,0,0-4.23,1,9.59,9.59,0,0,0-3.24,3,15.23,15.23,0,0,0-2.08,4.71,22.54,22.54,0,0,0-.75,5.92,19.65,19.65,0,0,0,1.47,7.82,12.44,12.44,0,0,0,4.12,5.32,10,10,0,0,0,6,1.91,11.77,11.77,0,0,0,4-.68,12.63,12.63,0,0,0,3.7-2.07,17.42,17.42,0,0,0,3.28-3.48l1.32.74a16.82,16.82,0,0,1-6.05,5.48A17.31,17.31,0,0,1,16.33,199a17.11,17.11,0,0,1-6.59-1.25A15.51,15.51,0,0,1,1.17,189,17,17,0,0,1,0,182.74a17.16,17.16,0,0,1,1.27-6.65A15.72,15.72,0,0,1,10,167.4a16.8,16.8,0,0,1,6.29-1.2,14.21,14.21,0,0,1,2.34.19q1.08.2,2.58.6c1,.26,1.67.44,2,.52a5.5,5.5,0,0,0,1.22.13A3.82,3.82,0,0,0,27.37,166.38Zm-15.62,1a19.94,19.94,0,0,0-5.67,3.16,12.9,12.9,0,0,0-2.26,2.41,15.39,15.39,0,0,0-1.67,2.86,16.47,16.47,0,0,0-1,3.27,17,17,0,0,0-.36,3.43,16.82,16.82,0,0,0,1.65,7.43,14.39,14.39,0,0,0,4.94,5.65,16.93,16.93,0,0,0,7.81,2.76A19.7,19.7,0,0,1,9.73,196a16.64,16.64,0,0,1-4.16-3.64A15.48,15.48,0,0,1,3,187.77a15.87,15.87,0,0,1-.86-5.19,16.33,16.33,0,0,1,.74-4.69,15.26,15.26,0,0,1,2.06-4.36A18,18,0,0,1,8,170.05,36.85,36.85,0,0,1,11.75,167.36ZM26.49,172l-.13-3.8a5.27,5.27,0,0,1-2.21.48,6.85,6.85,0,0,1-1-.09,15.77,15.77,0,0,1,1.9,1.68C25.5,170.83,26,171.4,26.49,172Z"/><path class="cls-1" d="M33.31,182.45a18.23,18.23,0,0,1,.38-3.83,16.66,16.66,0,0,1,1.11-3.44,14.74,14.74,0,0,1,1.86-3.05,15.49,15.49,0,0,1,2.45-2.53,14.17,14.17,0,0,1,3.13-1.94,15,15,0,0,1,3.63-1.11,24.16,24.16,0,0,1,4.19-.35,17.91,17.91,0,0,1,6.86,1.28A15.22,15.22,0,0,1,62.2,171a15.62,15.62,0,0,1,3.34,5.19,17.22,17.22,0,0,1-.12,12.73,15.75,15.75,0,0,1-3.64,5.28,16.81,16.81,0,0,1-5.53,3.48,18.55,18.55,0,0,1-6.84,1.24A16.77,16.77,0,0,1,43,197.71a14.84,14.84,0,0,1-8.49-8.65A18.17,18.17,0,0,1,33.31,182.45Zm8.28-13.76A15.5,15.5,0,0,0,36,174.5a16.48,16.48,0,0,0-1.92,8,17.7,17.7,0,0,0,1.25,6.74A14.2,14.2,0,0,0,39,194.45a16.93,16.93,0,0,0,6,3.37,18.08,18.08,0,0,1-7-6.15,17,17,0,0,1-2.59-9.58,18,18,0,0,1,.68-5.12,15.33,15.33,0,0,1,2.06-4.3A24.92,24.92,0,0,1,41.59,168.69Zm-2.1,11.39a29.69,29.69,0,0,0,.81,7.15,18.58,18.58,0,0,0,2.3,5.61,11.08,11.08,0,0,0,3.54,3.6,8.31,8.31,0,0,0,4.41,1.24,8.78,8.78,0,0,0,3.81-.86,9,9,0,0,0,3.16-2.58A12.44,12.44,0,0,0,59.63,190a20.91,20.91,0,0,0,.75-5.89,25.53,25.53,0,0,0-.86-6.78,17,17,0,0,0-2.39-5.3,11.3,11.3,0,0,0-3.61-3.37,8.84,8.84,0,0,0-4.46-1.19,8.41,8.41,0,0,0-3.85.89,8.58,8.58,0,0,0-3,2.56,12.35,12.35,0,0,0-2,4A17.84,17.84,0,0,0,39.49,180.08Zm13.76-12.31a12.91,12.91,0,0,1,4.31,3.69,16.75,16.75,0,0,1,2.67,5.64,27.72,27.72,0,0,1,.89,7.22,18.54,18.54,0,0,1-1,6.47,15.14,15.14,0,0,1-2.87,4.83A12.17,12.17,0,0,0,62,188.51a20.69,20.69,0,0,0,.56-5,23.33,23.33,0,0,0-1.11-7.36,14.2,14.2,0,0,0-3.22-5.54A9.51,9.51,0,0,0,53.25,167.77Z"/><path class="cls-1" d="M92.51,168v-1.22h11.95V168a5.66,5.66,0,0,0-2.63.68,4.38,4.38,0,0,0-1.77,1.82,5.83,5.83,0,0,0-.65,2.87L99.83,199H98.45L75.62,172.35,76,190.29a17.4,17.4,0,0,0,.27,2.82,5.42,5.42,0,0,0,.8,2,4,4,0,0,0,1.67,1.34,8.62,8.62,0,0,0,2.8.65v1.23H69.63V197.1a5.52,5.52,0,0,0,3.45-1.25,4.7,4.7,0,0,0,1.4-2.67,20.16,20.16,0,0,0,.18-4l-.32-18.3a11.72,11.72,0,0,0-2.48-2.11,4.82,4.82,0,0,0-2.5-.73h-.27v-1.22h9.23l20.13,23.48-.32-15.71a11.29,11.29,0,0,0-.36-3.07,4.4,4.4,0,0,0-1.24-2,4.79,4.79,0,0,0-1.8-1A6.29,6.29,0,0,0,92.51,168Zm4.31,25.58L76.69,170.14a7.6,7.6,0,0,0-1.49-1.45,3.89,3.89,0,0,0-2.42-.66h-1a5.58,5.58,0,0,1,2,1.09,22.93,22.93,0,0,1,1.94,2.13L98.6,198c0-.43,0-.85,0-1.26a3.11,3.11,0,0,0-.15-.92A3.31,3.31,0,0,0,98,195C97.77,194.75,97.38,194.27,96.82,193.61ZM72.38,197.1h4.71a6.33,6.33,0,0,1-1.4-1.41,6.21,6.21,0,0,1-.7-1.81,5.07,5.07,0,0,1-.89,1.82A5.64,5.64,0,0,1,72.38,197.1ZM100.32,168H95.43a5,5,0,0,1,1.82,1.05,5.44,5.44,0,0,1,1.2,1.84A4.7,4.7,0,0,1,100.32,168Z"/><path class="cls-1" d="M108.14,187h1.48a23,23,0,0,0,3,5.93,12.08,12.08,0,0,0,3.77,3.56,8.52,8.52,0,0,0,4.28,1.17,7,7,0,0,0,4.78-1.75,6.27,6.27,0,0,0,.67-8.43,7.1,7.1,0,0,0-3.15-2,37.46,37.46,0,0,0-4.82-1.06,30.88,30.88,0,0,1-4.25-.91,10.2,10.2,0,0,1-3.31-1.85,7.73,7.73,0,0,1-2.06-2.81,8.86,8.86,0,0,1-.71-3.52,9.58,9.58,0,0,1,.63-3.44,9.26,9.26,0,0,1,1.77-2.93,8,8,0,0,1,2.78-2,8.82,8.82,0,0,1,3.65-.74,19.53,19.53,0,0,1,3.56.42,18.61,18.61,0,0,0,3.07.41,5,5,0,0,0,2.28-.54h1.7l1,9.19h-1.56a22.82,22.82,0,0,0-4.59-6.27,8.18,8.18,0,0,0-5.65-2.16,6.2,6.2,0,0,0-3,.75,6,6,0,0,0-2.22,2.07,5.28,5.28,0,0,0-.84,2.9,4.09,4.09,0,0,0,1.52,3.42,11,11,0,0,0,4.5,1.79c2,.4,3.77.75,5.34,1a14.54,14.54,0,0,1,3.74,1.09,9.64,9.64,0,0,1,4,3.46,9.18,9.18,0,0,1,1.41,5,10.16,10.16,0,0,1-1.3,5,9.92,9.92,0,0,1-3.64,3.72,10.06,10.06,0,0,1-5.23,1.4,9,9,0,0,1-2.46-.25c-.55-.16-1.49-.48-2.83-1a10.1,10.1,0,0,0-3.09-.72,3.38,3.38,0,0,0-2.83,1.37h-1.28Zm.74-14.28a13.52,13.52,0,0,0-.38,2.75,7.34,7.34,0,0,0,.4,2.38,8.31,8.31,0,0,0,1.19,2.26,7.39,7.39,0,0,0,1.76,1.73,8.42,8.42,0,0,0,2.91,1.26c1,.25,2.6.54,4.63.87a23.45,23.45,0,0,1,4.21,1,7.12,7.12,0,0,1,3.34,2.39,6.18,6.18,0,0,1,1.2,3.78,7.5,7.5,0,0,1-.92,3.4,6.22,6.22,0,0,0,1.83-4.45,6,6,0,0,0-1.35-4.15,8.27,8.27,0,0,0-3.35-2.23,34.45,34.45,0,0,0-5.46-1.34l-3.55-.63a8.86,8.86,0,0,1-4.82-2.86,7.29,7.29,0,0,1-1.64-4.7c0-.32,0-.6,0-.82A6.05,6.05,0,0,1,108.88,172.7Zm0,18.44v6a3.37,3.37,0,0,1,1.19-1.09,3.87,3.87,0,0,1,1.69-.21c-.49-.58-.84-1-1.06-1.28a14.2,14.2,0,0,1-.8-1.23A17.06,17.06,0,0,1,108.88,191.14Zm16.84-18.61-.73-4.27a4.84,4.84,0,0,1-1.48.25,7.15,7.15,0,0,1-1.74-.25,8,8,0,0,1,1.56,1.3,17,17,0,0,1,1.41,1.71C125.23,171.94,125.56,172.36,125.72,172.53Z"/><path class="cls-1" d="M135.33,166.81h28.39l1.61,7.37h-1.61a13.77,13.77,0,0,0-3.59-4.22,8.55,8.55,0,0,0-3.54-1.61,31.41,31.41,0,0,0-4.35-.32v25.4a4.39,4.39,0,0,0,.47,2.25,2.42,2.42,0,0,0,1.54,1.06,13.14,13.14,0,0,0,3,.36v1.23H141.58V197.1a14.83,14.83,0,0,0,3-.3,2.49,2.49,0,0,0,1.56-1.07,4.86,4.86,0,0,0,.53-2.56V168a17.68,17.68,0,0,0-4.2.49,10.11,10.11,0,0,0-3,1.24,10,10,0,0,0-2,1.66c-.53.59-1.3,1.51-2.33,2.76h-1.36Zm4.16,1.22h-3.62l-.88,3.8a15.81,15.81,0,0,1,2-2.22A13.68,13.68,0,0,1,139.49,168Zm9.33,24.63v-22a4.84,4.84,0,0,0-.3-1.95,1.27,1.27,0,0,0-1.13-.72v25.4a6.11,6.11,0,0,1-.33,2.22,3.34,3.34,0,0,1-1.25,1.45h.49c1.09,0,1.78-.34,2.08-1A9.49,9.49,0,0,0,148.82,192.66Zm14-21-1-3.58h-4.2a9.52,9.52,0,0,1,2.84,1.39A17.83,17.83,0,0,1,162.81,171.61Z"/><path class="cls-1" d="M183,198.33H167.48V197.1a13.09,13.09,0,0,0,3.21-.35,2.17,2.17,0,0,0,1.44-1.08,5.8,5.8,0,0,0,.39-2.46V172.35a8,8,0,0,0-.33-2.66,2.09,2.09,0,0,0-1.37-1.23,12.43,12.43,0,0,0-3.34-.43v-1.22H185.1a13.71,13.71,0,0,1,5.82,1.15,8.77,8.77,0,0,1,3.75,3.06,7.27,7.27,0,0,1,1.27,4.12,7.35,7.35,0,0,1-.58,2.83,8.17,8.17,0,0,1-1.68,2.49,10.17,10.17,0,0,1-2.65,1.91,12.34,12.34,0,0,1-3.61,1.13,53.4,53.4,0,0,1,3.8,4.35l2.22,2.61c.11.14.26.31.44.51l.69.77c.72.86,1.32,1.57,1.81,2.13a19.29,19.29,0,0,0,1.47,1.51,8,8,0,0,0,1.41,1.08,6.25,6.25,0,0,0,1.48.64v1.23h-4.2a5.9,5.9,0,0,1-2.7-.64,9.34,9.34,0,0,1-2.45-1.8,33.45,33.45,0,0,1-2.67-3.06l-3.13-4a48.73,48.73,0,0,0-3.22-3.9,2.94,2.94,0,0,0-1.85-1.09H178v9.47a5.55,5.55,0,0,0,.36,2.22,2.31,2.31,0,0,0,1.56,1.16,10.17,10.17,0,0,0,1.59.29,9.24,9.24,0,0,0,1.41.09Zm-9.72-26.16v22.05a2.94,2.94,0,0,1-1.54,2.88c2,0,2.92-.8,2.92-2.26V172.3a14,14,0,0,0-.18-2.6,1.94,1.94,0,0,0-.88-1.31,3.73,3.73,0,0,0-2.08-.36,2.53,2.53,0,0,1,1.46,1.36A9.08,9.08,0,0,1,173.24,172.17Zm4.8.4v10.08h3.62a11.58,11.58,0,0,0,3.62-.59,7,7,0,0,0,2.7-1.49,6.89,6.89,0,0,0,1.84-5.25q0-4.17-2.84-6.14a5.74,5.74,0,0,0-2.1-.92,14.21,14.21,0,0,0-2.79-.23,5.76,5.76,0,0,0-2.61.47,2.24,2.24,0,0,0-1.16,1.38A10.1,10.1,0,0,0,178,172.57Zm5.83,11.3H182a13.36,13.36,0,0,1,1.87,1.82c.7.8,1.59,1.88,2.67,3.26s2.15,2.76,3.24,4.17a17.62,17.62,0,0,0,2.77,2.92,6.9,6.9,0,0,0,2.25,1.3,8.38,8.38,0,0,0,2.1.34,11.25,11.25,0,0,1-2.66-1.84,29.72,29.72,0,0,1-2.73-3c-1-1.2-2-2.47-3-3.79s-2.1-2.58-3.2-3.75c-.15-.21-.34-.45-.55-.71A3.75,3.75,0,0,0,183.87,183.87Zm2-1.33a7,7,0,0,0,4.6-2.24,7.43,7.43,0,0,0,1.61-5,7.74,7.74,0,0,0-1.43-4.9,6,6,0,0,0-4.07-2.2,7,7,0,0,1,3,2.76,9.28,9.28,0,0,1,1,4.61,7.42,7.42,0,0,1-1.17,4.56A8.05,8.05,0,0,1,185.84,182.54Z"/><path class="cls-1" d="M207.6,188.72v-17a4.28,4.28,0,0,0-.51-2.4,2.14,2.14,0,0,0-1.42-.91c-.62-.11-1.64-.24-3-.36v-1.22h15.14V168a18,18,0,0,0-2.68.33,2.23,2.23,0,0,0-1.37.9,4,4,0,0,0-.48,2.22v17.73a8,8,0,0,0,1.1,4.26,6.94,6.94,0,0,0,3.14,2.71,11.33,11.33,0,0,0,4.74.92,11.12,11.12,0,0,0,5-1,7.74,7.74,0,0,0,3.34-3.17,10.26,10.26,0,0,0,1.2-5.12v-10.3a23,23,0,0,0-.51-5.47,5.2,5.2,0,0,0-1.72-2.92,6.09,6.09,0,0,0-3.4-1v-1.22h11.49V168a4.62,4.62,0,0,0-3,1.39,5.88,5.88,0,0,0-1.33,2.94,25.63,25.63,0,0,0-.34,4.5v11.55a10.47,10.47,0,0,1-.88,4.35,9.38,9.38,0,0,1-2.56,3.35,11.54,11.54,0,0,1-4,2.11,18.73,18.73,0,0,1-5.37.71q-7.2,0-10.64-4a7.72,7.72,0,0,1-1.46-2.73A12.33,12.33,0,0,1,207.6,188.72Zm2.21.14V171q0-3.31-3.17-3c1.13.46,1.69,1.53,1.69,3.22v17.83a7.93,7.93,0,0,0,2.24,6,13.74,13.74,0,0,0,6.7,3.13,26.8,26.8,0,0,1-2.93-1.44,11.19,11.19,0,0,1-2.25-1.75,7.66,7.66,0,0,1-1.67-2.59A9.54,9.54,0,0,1,209.81,188.86ZM233.69,168h-4.58a4.69,4.69,0,0,1,2.61,3.54,8.7,8.7,0,0,1,.71-2.13A3.86,3.86,0,0,1,233.69,168Z"/><path class="cls-1" d="M268.05,166.38h1.83v9.9H268.5a24.44,24.44,0,0,0-2.27-3.85,15.07,15.07,0,0,0-2.58-2.77,10.18,10.18,0,0,0-2.86-1.66,9.42,9.42,0,0,0-3.22-.54,8.54,8.54,0,0,0-4.22,1,9.4,9.4,0,0,0-3.24,3,15.24,15.24,0,0,0-2.09,4.71,22.54,22.54,0,0,0-.75,5.92,19.48,19.48,0,0,0,1.48,7.82,12.36,12.36,0,0,0,4.12,5.32,10,10,0,0,0,6,1.91,11.86,11.86,0,0,0,4-.68,12.76,12.76,0,0,0,3.7-2.07,17.71,17.71,0,0,0,3.28-3.48l1.32.74a16.85,16.85,0,0,1-6.06,5.48,18.43,18.43,0,0,1-14.72.6,15.51,15.51,0,0,1-8.57-8.72,17,17,0,0,1-1.17-6.27,17.17,17.17,0,0,1,1.28-6.65,15.64,15.64,0,0,1,8.72-8.69,16.76,16.76,0,0,1,6.29-1.2,14.18,14.18,0,0,1,2.33.19c.72.13,1.59.33,2.58.6s1.67.44,2,.52a5.5,5.5,0,0,0,1.22.13A3.82,3.82,0,0,0,268.05,166.38Zm-15.62,1a20.08,20.08,0,0,0-5.67,3.16,13.6,13.6,0,0,0-2.26,2.41,15.69,15.69,0,0,0-2.71,6.13,16.35,16.35,0,0,0-.37,3.43,16.82,16.82,0,0,0,1.65,7.43,14.47,14.47,0,0,0,4.94,5.65,16.93,16.93,0,0,0,7.82,2.76,19.76,19.76,0,0,1-5.42-2.3,16.59,16.59,0,0,1-4.15-3.64,15.27,15.27,0,0,1-2.57-4.62,15.61,15.61,0,0,1-.86-5.19,16.3,16.3,0,0,1,.73-4.69,15.26,15.26,0,0,1,2.06-4.36,18,18,0,0,1,3.09-3.48A36.85,36.85,0,0,1,252.43,167.36ZM267.18,172l-.14-3.8a5.27,5.27,0,0,1-2.21.48,7,7,0,0,1-1.05-.09,15.77,15.77,0,0,1,1.9,1.68C266.18,170.83,266.68,171.4,267.18,172Z"/><path class="cls-1" d="M274.5,166.81h28.4l1.61,7.37H302.9a13.79,13.79,0,0,0-3.6-4.22,8.49,8.49,0,0,0-3.54-1.61,31.41,31.41,0,0,0-4.35-.32v25.4a4.39,4.39,0,0,0,.47,2.25,2.45,2.45,0,0,0,1.55,1.06,13.12,13.12,0,0,0,3,.36v1.23H280.76V197.1a14.63,14.63,0,0,0,3-.3,2.46,2.46,0,0,0,1.56-1.07,4.86,4.86,0,0,0,.53-2.56V168a17.68,17.68,0,0,0-4.2.49,9.93,9.93,0,0,0-3,1.24,9.7,9.7,0,0,0-2,1.66q-.79.89-2.34,2.76h-1.36Zm4.16,1.22H275l-.87,3.8a15.2,15.2,0,0,1,2-2.22A13.54,13.54,0,0,1,278.66,168ZM288,192.66v-22a4.84,4.84,0,0,0-.3-1.95,1.28,1.28,0,0,0-1.13-.72v25.4a6.09,6.09,0,0,1-.34,2.22A3.27,3.27,0,0,1,285,197.1h.49c1.09,0,1.78-.34,2.08-1A9.22,9.22,0,0,0,288,192.66Zm14-21L301,168h-4.2a9.46,9.46,0,0,1,2.83,1.39A17.83,17.83,0,0,1,302,171.61Z"/><path class="cls-1" d="M307.25,166.81h14.88V168a9,9,0,0,0-3.25.55,2.13,2.13,0,0,0-1.24,2c0,.63-.06,1.13-.09,1.49s0,.53,0,.48v20.6a6.34,6.34,0,0,0,.28,2.1,2.15,2.15,0,0,0,.79,1.12,3.22,3.22,0,0,0,1.18.45c.45.08,1.24.17,2.37.26v1.23H307.25V197.1a9.58,9.58,0,0,0,3-.41,2.06,2.06,0,0,0,1.31-1.26,8.6,8.6,0,0,0,.31-2.73V172.75a15.37,15.37,0,0,0-.17-2.65,2.07,2.07,0,0,0-.64-1.24,2.7,2.7,0,0,0-1.26-.52c-.53-.1-1.38-.2-2.56-.31Zm5.36,5.29v22.25a2.81,2.81,0,0,1-.4,1.68,4.34,4.34,0,0,1-1.38,1.07,5.79,5.79,0,0,0,2.34-.48,1.91,1.91,0,0,0,.9-1.91V171a3.5,3.5,0,0,0-.63-2.28A3,3,0,0,0,311,168a3.49,3.49,0,0,1,1.7,3.4c0,.12,0,.23,0,.34S312.63,172,312.61,172.1Z"/><path class="cls-1" d="M325.91,182.45a18.23,18.23,0,0,1,.38-3.83,16.66,16.66,0,0,1,1.11-3.44,15.18,15.18,0,0,1,1.86-3.05,15.49,15.49,0,0,1,2.45-2.53,14,14,0,0,1,3.13-1.94,15,15,0,0,1,3.63-1.11,24.07,24.07,0,0,1,4.19-.35,17.91,17.91,0,0,1,6.86,1.28A15.22,15.22,0,0,1,354.8,171a15.62,15.62,0,0,1,3.34,5.19,17.22,17.22,0,0,1-.12,12.73,15.75,15.75,0,0,1-3.64,5.28,16.81,16.81,0,0,1-5.53,3.48,18.55,18.55,0,0,1-6.84,1.24,16.73,16.73,0,0,1-6.43-1.22,14.84,14.84,0,0,1-8.49-8.65A18.17,18.17,0,0,1,325.91,182.45Zm8.29-13.76a15.45,15.45,0,0,0-5.64,5.81,16.48,16.48,0,0,0-1.92,8,17.51,17.51,0,0,0,1.26,6.74,14.06,14.06,0,0,0,3.68,5.22,16.93,16.93,0,0,0,6,3.37,18.08,18.08,0,0,1-7-6.15,17,17,0,0,1-2.59-9.58,18,18,0,0,1,.68-5.12,15.61,15.61,0,0,1,2.06-4.3A24.5,24.5,0,0,1,334.2,168.69Zm-2.1,11.39a29.7,29.7,0,0,0,.8,7.15,18.84,18.84,0,0,0,2.3,5.61,11.08,11.08,0,0,0,3.54,3.6,8.31,8.31,0,0,0,4.41,1.24,8.78,8.78,0,0,0,3.81-.86,9,9,0,0,0,3.16-2.58,12.44,12.44,0,0,0,2.11-4.25,20.91,20.91,0,0,0,.75-5.89,25.12,25.12,0,0,0-.86-6.78,17,17,0,0,0-2.39-5.3,11.3,11.3,0,0,0-3.61-3.37,8.84,8.84,0,0,0-4.46-1.19,8.37,8.37,0,0,0-3.84.89,8.64,8.64,0,0,0-3.06,2.56,12.55,12.55,0,0,0-2,4A17.85,17.85,0,0,0,332.1,180.08Zm13.76-12.31a13,13,0,0,1,4.3,3.69,16.54,16.54,0,0,1,2.66,5.64,27.29,27.29,0,0,1,.9,7.22,18.54,18.54,0,0,1-1,6.47,15.14,15.14,0,0,1-2.87,4.83,12.17,12.17,0,0,0,4.76-7.11,20.69,20.69,0,0,0,.56-5,23.33,23.33,0,0,0-1.11-7.36,14.2,14.2,0,0,0-3.22-5.54A9.52,9.52,0,0,0,345.86,167.77Z"/><path class="cls-1" d="M385.11,168v-1.22h11.95V168a5.66,5.66,0,0,0-2.63.68,4.38,4.38,0,0,0-1.77,1.82,5.83,5.83,0,0,0-.65,2.87l.42,25.62h-1.38l-22.83-26.67.33,17.94a17.4,17.4,0,0,0,.27,2.82,5.42,5.42,0,0,0,.8,2,4,4,0,0,0,1.67,1.34,8.62,8.62,0,0,0,2.8.65v1.23H362.23V197.1a5.52,5.52,0,0,0,3.45-1.25,4.7,4.7,0,0,0,1.4-2.67,20.94,20.94,0,0,0,.18-4l-.31-18.3a12,12,0,0,0-2.48-2.11A4.86,4.86,0,0,0,362,168h-.27v-1.22h9.23l20.13,23.48-.31-15.71a11.26,11.26,0,0,0-.37-3.07,4.4,4.4,0,0,0-1.24-2,4.79,4.79,0,0,0-1.8-1A6.33,6.33,0,0,0,385.11,168Zm4.31,25.58-20.13-23.47a7.6,7.6,0,0,0-1.49-1.45,3.89,3.89,0,0,0-2.42-.66h-1a5.62,5.62,0,0,1,1.94,1.09,22.93,22.93,0,0,1,1.94,2.13L391.21,198q0-.65-.06-1.26a3.11,3.11,0,0,0-.15-.92,3.31,3.31,0,0,0-.42-.75C390.37,194.75,390,194.27,389.42,193.61ZM365,197.1h4.71a6.33,6.33,0,0,1-1.4-1.41,6.5,6.5,0,0,1-.7-1.81,5.07,5.07,0,0,1-.89,1.82A5.64,5.64,0,0,1,365,197.1ZM392.92,168H388a5,5,0,0,1,1.82,1.05,5.44,5.44,0,0,1,1.2,1.84A4.7,4.7,0,0,1,392.92,168Z"/></g></g></svg>