<svg xmlns="http://www.w3.org/2000/svg" viewBox="0 0 197.43 23.62"><defs><style>.cls-1,.cls-2{fill:#fff;}.cls-2{fill-rule:evenodd;}</style></defs><g id="Layer_2" data-name="Layer 2"><g id="Layer_1-2" data-name="Layer 1"><path class="cls-1" d="M37.35,8.26a4.78,4.78,0,0,1-.54,0H34v3.48H32V.2h4.78c3,0,4.74,1.43,4.74,4A3.71,3.71,0,0,1,39.11,7.9l2.65,3.86H39.5Zm-.54-1.73c1.82,0,2.86-.77,2.86-2.33S38.63,2,36.81,2H34V6.53Z"/><path class="cls-1" d="M46.18,2V5.07h5.76V6.82H46.18V10h6.63v1.75H44.19V.2h8.42V2Z"/><path class="cls-1" d="M63.49,11.76,57.22,3.47v8.29h-2V.2h2l6.31,8.31V.2h2V11.76Z"/><path class="cls-1" d="M80.07,6A6.26,6.26,0,0,1,67.58,6,6.26,6.26,0,0,1,80.07,6ZM69.6,6a4.18,4.18,0,0,0,4.24,4.11,4.1,4.1,0,1,0,0-8.19A4.15,4.15,0,0,0,69.6,6Z"/><path class="cls-1" d="M85.21,11.76,80.52.2h2.13l3.64,9.4L90,.2H92L87.27,11.76Z"/><path class="cls-1" d="M94.46,9.15l-1.12,2.61H91.27L96.47.2h2l5.15,11.56h-2.12l-1.12-2.61Zm3-6.87L95.2,7.42h4.45Z"/><path class="cls-1" d="M108.36,2v9.81h-2V2h-3.72V.2h9.44V2Z"/><path class="cls-1" d="M113.79,11.76V.2h2V11.76Z"/><path class="cls-1" d="M130.39,6A6.26,6.26,0,0,1,117.9,6a6.26,6.26,0,0,1,12.49,0ZM119.92,6a4.18,4.18,0,0,0,4.24,4.11,4.1,4.1,0,1,0,0-8.19A4.15,4.15,0,0,0,119.92,6Z"/><path class="cls-1" d="M140.77,11.76l-6.28-8.29v8.29h-2V.2h2l6.31,8.31V.2h1.95V11.76Z"/><path class="cls-1" d="M155.49,8.26a4.78,4.78,0,0,1-.54,0h-2.8v3.48h-2V.2H155c3,0,4.74,1.43,4.74,4a3.71,3.71,0,0,1-2.44,3.75l2.65,3.86h-2.26ZM155,6.53c1.82,0,2.86-.77,2.86-2.33S156.77,2,155,2h-2.8V6.53Z"/><path class="cls-1" d="M164,9.15l-1.13,2.61H160.8L166,.2h2l5.15,11.56h-2.12l-1.13-2.61Zm3-6.87-2.22,5.14h4.44Z"/><path class="cls-1" d="M184.14,1.93,183,3.35a4.64,4.64,0,0,0-3.28-1.47,4.08,4.08,0,1,0,0,8.15A4.91,4.91,0,0,0,183,8.66L184.16,10a6.8,6.8,0,0,1-4.56,1.9A5.93,5.93,0,0,1,173.47,6,5.92,5.92,0,0,1,179.66.15,6.54,6.54,0,0,1,184.14,1.93Z"/><path class="cls-1" d="M197.43,6a6.26,6.26,0,0,1-12.49,0,6.26,6.26,0,0,1,12.49,0ZM187,6a4.19,4.19,0,0,0,4.25,4.11A4.14,4.14,0,0,0,195.4,6,4.22,4.22,0,0,0,187,6Z"/><rect class="cls-1" x="6.1" y="5.38" width="11.59" height="2.92"/><rect class="cls-1" x="6.1" y="15.9" width="11.59" height="6.39"/><path class="cls-2" d="M23.71,0H.24A.24.24,0,0,0,0,.24V22.05a.24.24,0,0,0,.24.24H2.7V13H21.1v9.31h2.61a.24.24,0,0,0,.24-.24V.24A.24.24,0,0,0,23.71,0ZM21.1,11.22H2.7V2.46H21.1Z"/><path class="cls-1" d="M31.89,18h.55v.59h-.55Zm0,1.18h.55v3.12h-.55Z"/><path class="cls-1" d="M36.57,19.25a1.29,1.29,0,0,1,.32.31V18h.52v4.32h-.48v-.44a1.12,1.12,0,0,1-.45.42,1.21,1.21,0,0,1-.58.13A1.19,1.19,0,0,1,35,22a1.69,1.69,0,0,1-.39-1.17,2,2,0,0,1,.35-1.19,1.17,1.17,0,0,1,1-.5A1.15,1.15,0,0,1,36.57,19.25Zm-1.2,2.35a.77.77,0,0,0,.7.34.74.74,0,0,0,.61-.31,1.47,1.47,0,0,0,.24-.91,1.36,1.36,0,0,0-.25-.88.78.78,0,0,0-.61-.28.79.79,0,0,0-.65.3,1.36,1.36,0,0,0-.26.9A1.59,1.59,0,0,0,35.37,21.6Z"/><path class="cls-1" d="M41.75,19.24a1.2,1.2,0,0,1,.48.4,1.46,1.46,0,0,1,.22.56,3.59,3.59,0,0,1,0,.69H40.17a1.38,1.38,0,0,0,.23.77.77.77,0,0,0,.66.29.85.85,0,0,0,.67-.28.89.89,0,0,0,.19-.36h.53a1,1,0,0,1-.14.38,1.39,1.39,0,0,1-.26.35,1.23,1.23,0,0,1-.6.31,1.52,1.52,0,0,1-.44,0A1.34,1.34,0,0,1,40,22a1.65,1.65,0,0,1-.41-1.2A1.79,1.79,0,0,1,40,19.55a1.46,1.46,0,0,1,1.74-.31Zm.19,1.23a1.33,1.33,0,0,0-.15-.55.78.78,0,0,0-.73-.38.82.82,0,0,0-.61.26,1,1,0,0,0-.27.67Zm-.21-2.58-.8.85h-.41l.55-.85Z"/><path class="cls-1" d="M46.45,20.39a.27.27,0,0,0,.25-.15.54.54,0,0,0,0-.2.45.45,0,0,0-.2-.4,1.06,1.06,0,0,0-.56-.12.69.69,0,0,0-.59.23.66.66,0,0,0-.13.36h-.5a.94.94,0,0,1,.38-.81,1.61,1.61,0,0,1,.85-.22,1.77,1.77,0,0,1,.92.21.71.71,0,0,1,.35.65v1.81a.23.23,0,0,0,0,.13s.07.05.15.05h.08l.09,0v.39l-.19.05h-.18a.44.44,0,0,1-.4-.2.76.76,0,0,1-.09-.29,1.38,1.38,0,0,1-.47.37,1.55,1.55,0,0,1-.68.16,1,1,0,0,1-.73-.27.91.91,0,0,1-.28-.66.84.84,0,0,1,.28-.68,1.27,1.27,0,0,1,.73-.29Zm-1.13,1.43a.71.71,0,0,0,.4.13,1.31,1.31,0,0,0,.55-.13.73.73,0,0,0,.45-.7V20.7a1,1,0,0,1-.25.1l-.31.06-.32,0a1.11,1.11,0,0,0-.44.12.46.46,0,0,0-.25.44A.45.45,0,0,0,45.32,21.82Z"/><path class="cls-1" d="M49.81,18.28h.54v.87h.51v.43h-.51v2.05a.22.22,0,0,0,.12.22.51.51,0,0,0,.21,0h.18v.42l-.19,0h-.21a.59.59,0,0,1-.52-.19.89.89,0,0,1-.13-.49V19.58h-.43v-.43h.43Z"/><path class="cls-1" d="M53,18h.54v.59H53Zm0,1.18h.54v3.12H53Z"/><path class="cls-1" d="M58.2,19.47a1.56,1.56,0,0,1,.43,1.18,2,2,0,0,1-.38,1.26,1.35,1.35,0,0,1-1.16.49,1.3,1.3,0,0,1-1-.44,1.73,1.73,0,0,1-.38-1.17,1.81,1.81,0,0,1,.41-1.26,1.37,1.37,0,0,1,1.09-.47A1.44,1.44,0,0,1,58.2,19.47Zm-.33,2.08a2,2,0,0,0,.19-.88,1.47,1.47,0,0,0-.14-.71.79.79,0,0,0-.77-.44.77.77,0,0,0-.71.37,1.68,1.68,0,0,0-.22.89,1.45,1.45,0,0,0,.22.83.77.77,0,0,0,.7.34A.73.73,0,0,0,57.87,21.55Z"/><path class="cls-1" d="M60.85,19.15h.51v.45a1.35,1.35,0,0,1,.48-.4,1.31,1.31,0,0,1,.56-.12.93.93,0,0,1,.92.47,1.59,1.59,0,0,1,.13.73v2h-.54v-2a1,1,0,0,0-.09-.46.51.51,0,0,0-.52-.29,1.35,1.35,0,0,0-.31,0,.84.84,0,0,0-.39.26.72.72,0,0,0-.17.32,2,2,0,0,0,0,.48v1.64h-.54Z"/><path class="cls-1" d="M65.94,21.65h.62v.64h-.62Z"/><path class="cls-1" d="M70.83,19.25a1.29,1.29,0,0,1,.32.31V18h.52v4.32h-.48v-.44a1.12,1.12,0,0,1-.45.42,1.21,1.21,0,0,1-.58.13,1.19,1.19,0,0,1-.92-.44,1.69,1.69,0,0,1-.39-1.17,2,2,0,0,1,.35-1.19,1.17,1.17,0,0,1,1-.5A1.15,1.15,0,0,1,70.83,19.25Zm-1.2,2.35a.77.77,0,0,0,.7.34.74.74,0,0,0,.61-.31,1.47,1.47,0,0,0,.24-.91,1.36,1.36,0,0,0-.25-.88.78.78,0,0,0-.61-.28.79.79,0,0,0-.65.3,1.36,1.36,0,0,0-.26.9A1.59,1.59,0,0,0,69.63,21.6Z"/><path class="cls-1" d="M76,19.24a1.2,1.2,0,0,1,.48.4,1.46,1.46,0,0,1,.22.56,3.59,3.59,0,0,1,.05.69H74.43a1.38,1.38,0,0,0,.23.77.77.77,0,0,0,.66.29.85.85,0,0,0,.67-.28.89.89,0,0,0,.19-.36h.53a1,1,0,0,1-.14.38,1.39,1.39,0,0,1-.26.35,1.23,1.23,0,0,1-.6.31,1.52,1.52,0,0,1-.44,0,1.34,1.34,0,0,1-1-.42,1.65,1.65,0,0,1-.41-1.2,1.79,1.79,0,0,1,.41-1.23A1.46,1.46,0,0,1,76,19.24Zm.19,1.23a1.33,1.33,0,0,0-.15-.55.78.78,0,0,0-.73-.38.82.82,0,0,0-.61.26,1,1,0,0,0-.27.67Z"/><path class="cls-1" d="M79.32,21.31a.73.73,0,0,0,.14.4.86.86,0,0,0,.72.25,1.12,1.12,0,0,0,.53-.12.42.42,0,0,0,.23-.4.33.33,0,0,0-.18-.3,1.7,1.7,0,0,0-.47-.15l-.43-.11a2.52,2.52,0,0,1-.62-.22.67.67,0,0,1-.35-.59.88.88,0,0,1,.33-.72,1.32,1.32,0,0,1,.89-.28,1.26,1.26,0,0,1,1.06.42.91.91,0,0,1,.2.56h-.51a.59.59,0,0,0-.13-.32.87.87,0,0,0-.66-.21.78.78,0,0,0-.47.12.33.33,0,0,0-.16.3.38.38,0,0,0,.21.33,1.36,1.36,0,0,0,.36.12l.36.09a2.65,2.65,0,0,1,.79.27.68.68,0,0,1,.31.63,1,1,0,0,1-.32.73,1.46,1.46,0,0,1-1,.3,1.37,1.37,0,0,1-1-.32,1.16,1.16,0,0,1-.33-.78Z"/><path class="cls-1" d="M83.62,18h.55v.59h-.55Zm0,1.18h.55v3.12h-.55Z"/><path class="cls-1" d="M88.32,19.28a1.71,1.71,0,0,1,.31.3v-.4h.49V22a2.07,2.07,0,0,1-.18.94,1.29,1.29,0,0,1-1.25.64,1.59,1.59,0,0,1-.87-.23.9.9,0,0,1-.39-.71H87a.57.57,0,0,0,.16.32.78.78,0,0,0,.57.18.77.77,0,0,0,.8-.43,2.35,2.35,0,0,0,.11-.9,1.11,1.11,0,0,1-.39.36,1.39,1.39,0,0,1-1.5-.24,1.57,1.57,0,0,1-.39-1.2,1.78,1.78,0,0,1,.39-1.23,1.25,1.25,0,0,1,1.6-.26Zm.06.56a.79.79,0,0,0-.62-.28.78.78,0,0,0-.77.52,2.12,2.12,0,0,0-.11.73,1.24,1.24,0,0,0,.22.81.7.7,0,0,0,.59.28.82.82,0,0,0,.81-.52,1.7,1.7,0,0,0,.13-.67A1.27,1.27,0,0,0,88.38,19.84Z"/><path class="cls-1" d="M91.5,19.15H92v.45a1.55,1.55,0,0,1,.48-.4,1.32,1.32,0,0,1,.57-.12.94.94,0,0,1,.92.47,1.59,1.59,0,0,1,.13.73v2h-.55v-2a1.19,1.19,0,0,0-.08-.46.52.52,0,0,0-.52-.29,1.45,1.45,0,0,0-.32,0,.91.91,0,0,0-.56.58,2,2,0,0,0,0,.48v1.64H91.5Z"/><path class="cls-1" d="M96.6,21.65h.62v.64H96.6Z"/><path class="cls-1" d="M101.84,19.32a1.23,1.23,0,0,1,.41.89h-.52a1,1,0,0,0-.22-.48.71.71,0,0,0-.55-.2.76.76,0,0,0-.73.5,1.81,1.81,0,0,0-.15.78,1.44,1.44,0,0,0,.21.8.71.71,0,0,0,.64.32.72.72,0,0,0,.53-.2,1.14,1.14,0,0,0,.27-.55h.52a1.34,1.34,0,0,1-.45.91,1.37,1.37,0,0,1-.92.29,1.24,1.24,0,0,1-1-.45,1.74,1.74,0,0,1-.37-1.12,1.9,1.9,0,0,1,.41-1.29,1.32,1.32,0,0,1,1-.46A1.44,1.44,0,0,1,101.84,19.32Z"/><path class="cls-1" d="M106.66,19.47a1.53,1.53,0,0,1,.43,1.18,2,2,0,0,1-.38,1.26,1.33,1.33,0,0,1-1.15.49,1.28,1.28,0,0,1-1-.44,1.69,1.69,0,0,1-.39-1.17,1.85,1.85,0,0,1,.41-1.26,1.37,1.37,0,0,1,1.09-.47A1.43,1.43,0,0,1,106.66,19.47Zm-.33,2.08a2,2,0,0,0,.2-.88,1.6,1.6,0,0,0-.14-.71.81.81,0,0,0-.78-.44.77.77,0,0,0-.71.37,1.78,1.78,0,0,0-.22.89,1.53,1.53,0,0,0,.22.83.79.79,0,0,0,.71.34A.72.72,0,0,0,106.33,21.55Z"/><path class="cls-1" d="M109.31,19.15h.51v.45a1.35,1.35,0,0,1,.48-.4,1.32,1.32,0,0,1,.57-.12.94.94,0,0,1,.92.47,1.73,1.73,0,0,1,.13.73v2h-.55v-2a1,1,0,0,0-.09-.46.5.5,0,0,0-.51-.29,1.39,1.39,0,0,0-.32,0,.89.89,0,0,0-.39.26.83.83,0,0,0-.17.32,2,2,0,0,0,0,.48v1.64h-.54Z"/><path class="cls-1" d="M114.59,21.31a.82.82,0,0,0,.14.4.89.89,0,0,0,.72.25,1.19,1.19,0,0,0,.54-.12.44.44,0,0,0,.23-.4.34.34,0,0,0-.19-.3,1.59,1.59,0,0,0-.47-.15l-.43-.11a2.28,2.28,0,0,1-.61-.22.65.65,0,0,1-.35-.59.88.88,0,0,1,.33-.72,1.32,1.32,0,0,1,.89-.28,1.23,1.23,0,0,1,1,.42.86.86,0,0,1,.2.56h-.51a.59.59,0,0,0-.13-.32.83.83,0,0,0-.65-.21.81.81,0,0,0-.48.12.35.35,0,0,0-.16.3.38.38,0,0,0,.21.33,1.36,1.36,0,0,0,.36.12l.36.09a2.54,2.54,0,0,1,.79.27.69.69,0,0,1,.32.63,1,1,0,0,1-.33.73,1.44,1.44,0,0,1-1,.3,1.37,1.37,0,0,1-1-.32,1.15,1.15,0,0,1-.32-.78Z"/><path class="cls-1" d="M119,18.28h.54v.87h.51v.43h-.51v2.05a.22.22,0,0,0,.12.22.51.51,0,0,0,.21,0h.18v.42l-.19,0h-.21a.58.58,0,0,1-.51-.19.81.81,0,0,1-.14-.49V19.58h-.43v-.43H119Z"/><path class="cls-1" d="M122.17,19.15h.51v.54a1.28,1.28,0,0,1,.31-.38.8.8,0,0,1,.56-.23h0l.13,0v.55h-.18a.74.74,0,0,0-.62.26.85.85,0,0,0-.22.59v1.8h-.54Z"/><path class="cls-1" d="M126.29,19.15v2.09a.87.87,0,0,0,.08.39.51.51,0,0,0,.52.28.73.73,0,0,0,.74-.49,2,2,0,0,0,.11-.73V19.15h.54v3.14h-.51v-.46a1.08,1.08,0,0,1-.26.3,1.13,1.13,0,0,1-.73.24.93.93,0,0,1-.91-.44,1.32,1.32,0,0,1-.14-.64V19.15Z"/><path class="cls-1" d="M132.83,19.32a1.23,1.23,0,0,1,.41.89h-.53a.89.89,0,0,0-.21-.48.71.71,0,0,0-.55-.2.75.75,0,0,0-.73.5,1.81,1.81,0,0,0-.15.78,1.44,1.44,0,0,0,.21.8.79.79,0,0,0,1.16.12,1.06,1.06,0,0,0,.27-.55h.53a1.34,1.34,0,0,1-.45.91,1.37,1.37,0,0,1-.92.29,1.24,1.24,0,0,1-1-.45,1.74,1.74,0,0,1-.37-1.12,1.9,1.9,0,0,1,.41-1.29,1.32,1.32,0,0,1,1-.46A1.44,1.44,0,0,1,132.83,19.32Z"/><path class="cls-1" d="M135.45,18.28H136v.87h.51v.43H136v2.05a.23.23,0,0,0,.11.22.51.51,0,0,0,.21,0h.19v.42l-.19,0h-.22a.58.58,0,0,1-.51-.19.81.81,0,0,1-.13-.49V19.58H135v-.43h.44Z"/><path class="cls-1" d="M138.6,18h.55v.59h-.55Zm0,1.18h.55v3.12h-.55Z"/><path class="cls-1" d="M143.84,19.47a1.56,1.56,0,0,1,.42,1.18,2,2,0,0,1-.37,1.26,1.36,1.36,0,0,1-1.16.49,1.29,1.29,0,0,1-1-.44,1.69,1.69,0,0,1-.39-1.17,1.85,1.85,0,0,1,.41-1.26,1.37,1.37,0,0,1,1.09-.47A1.47,1.47,0,0,1,143.84,19.47Zm-.34,2.08a2,2,0,0,0,.2-.88,1.6,1.6,0,0,0-.14-.71.8.8,0,0,0-.77-.44.75.75,0,0,0-.71.37,1.68,1.68,0,0,0-.22.89,1.45,1.45,0,0,0,.22.83.76.76,0,0,0,.7.34A.72.72,0,0,0,143.5,21.55Z"/><path class="cls-1" d="M146.48,19.15H147v.45a1.35,1.35,0,0,1,.48-.4,1.25,1.25,0,0,1,.56-.12.94.94,0,0,1,.92.47,1.59,1.59,0,0,1,.13.73v2h-.55v-2a1.19,1.19,0,0,0-.08-.46.52.52,0,0,0-.52-.29,1.45,1.45,0,0,0-.32,0,.91.91,0,0,0-.56.58,2.68,2.68,0,0,0,0,.48v1.64h-.54Z"/><path class="cls-1" d="M151.58,21.65h.62v.64h-.62Z"/></g></g></svg>